<svg width="9" height="9" viewBox="0 0 9 9" fill="none" xmlns="http://www.w3.org/2000/svg">
<path d="M2.65996 8.58313C2.65996 8.48708 2.64928 8.44439 2.60659 8.44439L2.36112 8.56179C2.36112 8.50842 2.3291 8.4764 2.27573 8.45506L2.19035 8.44439C2.11564 8.44439 2.08362 8.45506 1.97689 8.5191C1.94487 8.45506 1.90218 8.38035 1.87016 8.31631C1.59267 7.78267 1.3045 6.9822 1.17642 6.62999C1.11239 6.44855 1.04835 6.075 0.973639 5.50934C1.05902 5.5627 1.12306 5.58405 1.15508 5.58405C1.19777 5.58405 1.25113 5.50934 1.29383 5.35992C1.31517 5.39194 1.35786 5.40261 1.41123 5.40261C1.44325 5.40261 1.48594 5.39194 1.50728 5.35992L1.67805 5.10377L1.87016 5.1678H1.88084C1.90218 5.1678 1.9342 5.13579 1.98757 5.10377C2.04093 5.07175 2.08362 5.0504 2.11564 5.0504L2.14766 5.06108C2.31842 5.14646 2.43583 5.29588 2.48919 5.53068C2.61727 6.075 2.73467 6.34182 2.87342 6.34182C2.99082 6.34182 3.15091 6.20308 3.32168 5.93625C3.49244 5.66943 3.66321 5.30655 3.85532 4.86896C3.866 4.95435 3.87667 4.99704 3.89801 4.99704C3.96205 4.99704 4.12215 4.62349 4.51704 3.99379C5.10405 3.0439 6.55557 1.21883 6.92912 0.962681C7.20661 0.770568 7.42007 0.589129 7.56949 0.429036C7.54815 0.535764 7.5268 0.610475 7.5268 0.642493C7.5268 0.674512 7.54815 0.685185 7.56949 0.685185L7.86833 0.535764V0.578456C7.86833 0.631821 7.87901 0.66384 7.91103 0.66384C7.95372 0.66384 8.12448 0.493073 8.14583 0.429036L8.12448 0.578456L8.48736 0.364998L8.40198 0.557111C8.50871 0.4824 8.59409 0.439708 8.64746 0.439708C8.70082 0.439708 8.73284 0.525092 8.73284 0.578456C8.73284 0.66384 8.65813 0.781241 8.54073 0.930662C8.41265 1.10143 8.09247 1.43229 7.1319 2.5316C6.71566 3.0012 4.86925 5.50934 4.51704 6.10702L3.85532 7.22767C3.56715 7.70796 3.38572 8.01747 3.28966 8.13487C3.1936 8.25227 3.0762 8.36968 2.93745 8.4764L2.8414 8.42304L2.75601 8.4764L2.65996 8.58313Z" fill="black"/>
</svg>
