<svg width="38" height="37" viewBox="0 0 38 37" fill="none" xmlns="http://www.w3.org/2000/svg">
<path d="M0.968095 18.1354C0.968095 9.20138 7.29518 1.74698 16.0319 0.253281C22.979 -0.944496 30.222 2.18382 33.9844 7.98951C34.3649 8.58135 34.4776 9.1591 34.0549 9.75095C33.6885 10.2723 33.1671 10.3992 32.5612 10.2864C32.0821 10.1878 31.8144 9.83549 31.5607 9.45502C29.2779 6.18579 26.1919 4.08617 22.3026 3.17022C14.0168 1.23969 5.51964 6.86218 4.04004 15.2748C2.54634 23.8142 8.25339 31.9028 16.7224 33.0583C22.7394 33.8756 27.6292 31.7478 31.3212 26.9144C31.758 26.3507 32.1807 25.8293 32.9699 25.9702C34.069 26.1675 34.4777 27.323 33.7872 28.3094C32.068 30.7754 29.8697 32.7201 27.1783 34.0869C16.4687 39.5263 3.60321 33.2555 1.26402 21.461C1.06674 20.3196 0.925821 19.15 0.968095 18.1354Z" fill="#0E3904"/>
<path d="M19.9212 11.3433C22.8663 11.3433 24.7264 14.4716 23.3031 17.0503C23.0777 17.4731 23.1058 17.7126 23.3595 18.0931C24.5995 19.8404 24.3177 22.2501 22.7395 23.6451C21.1189 25.0825 18.6952 25.0684 17.0888 23.6451C15.5105 22.2501 15.2287 19.8404 16.4688 18.0931C16.7365 17.7126 16.7647 17.4731 16.5251 17.0503C15.116 14.4716 16.9901 11.3433 19.9212 11.3433ZM19.893 19.0936C19.1179 19.1077 18.5261 19.7277 18.5261 20.5027C18.5402 21.2778 19.1461 21.8837 19.9212 21.8837C20.7244 21.8837 21.3444 21.2496 21.3162 20.4464C21.288 19.6572 20.668 19.0795 19.893 19.0936ZM19.9353 16.2471C20.4989 16.233 20.9639 15.7821 20.978 15.2325C20.9921 14.6548 20.4989 14.1616 19.9071 14.1756C19.3434 14.1897 18.8784 14.6407 18.8643 15.1902C18.8502 15.768 19.3434 16.2612 19.9353 16.2471Z" fill="#0E3904"/>
<path d="M10.0571 15.768C9.7471 15.7399 9.63436 15.909 9.46526 15.9794C8.78887 16.2612 8.04203 16.0499 7.66156 15.458C7.29518 14.8803 7.36564 14.1193 7.9293 13.6825C8.84524 12.9497 9.78938 12.2452 10.7758 11.6111C11.6354 11.0615 12.6781 11.6111 12.8472 12.6256C12.8754 12.8088 12.8895 13.0061 12.8895 13.1893C12.8895 16.4585 12.8895 19.7137 12.8895 22.9829C12.8895 23.6593 12.7627 24.2511 12.1004 24.5752C11.1281 25.0543 10.0994 24.3779 10.0853 23.2084C10.0571 21.5878 10.0712 19.9673 10.0712 18.3468C10.0571 17.4731 10.0571 16.6135 10.0571 15.768Z" fill="#0E3904"/>
<path d="M32.0821 13.3723C32.8149 13.3582 33.4349 13.9078 33.5194 14.6406C33.5476 14.8519 33.5335 15.0633 33.5335 15.2747C33.5335 16.8952 33.5335 16.8952 35.1118 16.8952C35.2809 16.8952 35.4359 16.8952 35.605 16.8952C36.4505 16.9234 37.0564 17.5152 37.0564 18.3044C37.0564 19.0935 36.4505 19.6712 35.605 19.7135C34.9286 19.7558 34.069 19.4176 33.6463 19.8544C33.2658 20.249 33.5617 21.1086 33.5335 21.7568C33.5054 22.6445 32.8994 23.2646 32.0821 23.2364C31.293 23.2223 30.7293 22.6164 30.7152 21.7568C30.7011 21.2918 30.6871 20.8126 30.7152 20.3476C30.7575 19.8685 30.6307 19.6571 30.1093 19.7135C29.6161 19.7558 29.1229 19.7417 28.6297 19.7135C27.7842 19.6853 27.1783 19.0935 27.1783 18.3044C27.1783 17.5152 27.7842 16.9375 28.6297 16.8952C29.3061 16.8529 30.1798 17.1911 30.5884 16.7543C30.983 16.3315 30.673 15.4579 30.7011 14.7815C30.7434 13.9783 31.3212 13.4005 32.0821 13.3723Z" fill="#0E3904"/>
</svg>
