<svg width="36" height="37" viewBox="0 0 36 37" fill="none" xmlns="http://www.w3.org/2000/svg">
<path d="M23.602 23.7345C23.602 25.1423 23.616 26.55 23.5879 27.9577C23.5738 28.3941 23.7146 28.5068 24.151 28.5208C25.6009 28.549 25.6009 28.5631 25.6009 29.9849C25.6009 30.0271 25.6009 30.0834 25.6009 30.1257C25.5869 30.6606 25.7558 31.3222 25.5024 31.6883C25.249 32.0543 24.5451 31.8009 24.0384 31.815C23.6864 31.829 23.602 31.9557 23.616 32.2795C23.6301 33.0115 23.602 33.7295 23.6301 34.4615C23.6442 34.8275 23.5034 34.9542 23.1515 34.9401C22.2365 34.9261 21.3214 34.9261 20.4064 34.9401C20.0685 34.9401 19.9559 34.8134 19.97 34.4897C19.9841 33.8139 19.9418 33.1241 19.9841 32.4484C20.0122 31.9698 19.8574 31.8009 19.3647 31.815C17.6754 31.8431 15.9861 31.815 14.2968 31.829C13.8182 31.8431 13.5789 31.7305 13.6633 31.2096C13.6633 31.1815 13.6633 31.1674 13.6633 31.1392C13.3677 29.2951 14.0293 27.8592 15.24 26.4515C17.0701 24.3258 18.7593 22.0593 20.4345 19.821C20.9132 19.1875 21.4059 18.9482 22.1801 18.9764C23.616 19.0468 23.616 18.9905 23.616 20.4123C23.602 21.5385 23.602 22.6365 23.602 23.7345ZM17.2671 28.5068C18.2948 28.5068 19.1394 28.5068 19.9841 28.5068C20.1812 28.5068 20.3642 28.4786 20.3642 28.2111C20.3642 27.0286 20.3642 25.8602 20.3642 24.6777C20.3219 24.6636 20.2656 24.6636 20.2234 24.6496C19.2802 25.8884 18.3229 27.1272 17.2671 28.5068Z" fill="#0E3904"/>
<path d="M29.7678 30.9703C29.979 31.0125 30.1761 31.0688 30.3732 31.0829C30.7251 31.1111 31.0067 31.1392 30.9081 31.646C30.8236 32.0543 30.7251 32.2513 30.2324 32.1528C29.5426 32.0261 28.8387 31.998 28.1349 31.9276C27.7829 31.8994 27.6422 31.7446 27.6985 31.3785C27.797 30.6324 27.9237 29.8863 27.9519 29.1402C27.98 28.5772 28.332 28.7461 28.6276 28.7461C28.9936 28.7602 29.1203 28.9291 29.0217 29.2951C28.9654 29.4922 28.9795 29.7033 28.9373 30.0975C30.2042 29.0417 31.1474 27.9014 31.978 26.6626C32.1328 26.4374 32.0061 26.3248 31.8372 26.2262C31.4994 26.0291 31.1615 25.8039 30.8096 25.6209C30.4013 25.4238 30.2746 25.2408 30.528 24.7763C30.8096 24.2836 31.0348 24.4806 31.3445 24.6636C32.7663 25.5083 32.7804 25.5083 33.428 23.9738C34.1459 22.2986 34.526 20.553 34.709 18.7511C34.7653 18.2584 34.6386 18.0614 34.1178 18.1177C33.794 18.1599 33.4561 18.1177 33.1323 18.1317C32.7382 18.1458 32.4707 18.1177 32.4707 17.5827C32.4707 17.0759 32.6819 16.9915 33.1042 17.0337C33.3857 17.0619 33.6673 17.0056 33.9488 17.0478C34.6245 17.1463 34.7794 16.8789 34.709 16.2454C34.4697 14.1338 33.9488 12.1066 33.0056 10.2062C32.7945 9.78386 32.6115 9.71347 32.2455 9.99502C31.9921 10.1921 31.6683 10.3047 31.4008 10.5018C31.0489 10.7552 30.8096 10.8537 30.528 10.361C30.2606 9.89648 30.4858 9.76978 30.8236 9.5727C32.2595 8.72805 32.2595 8.71398 31.2037 7.3907C30.162 6.08151 28.9514 4.95532 27.5718 3.98398C27.2339 3.74466 27.0228 3.70243 26.8398 4.13883C26.699 4.46261 26.4737 4.73008 26.3048 5.05386C26.1218 5.40579 25.981 5.61695 25.5165 5.33541C25.1082 5.08201 25.0801 4.85678 25.3475 4.51892C25.4179 4.43445 25.4742 4.32184 25.5306 4.22329C26.2063 3.0971 26.1922 3.11118 24.9534 2.54809C23.1796 1.74568 21.3355 1.30928 19.4069 1.15442C18.9564 1.11219 18.7593 1.23889 18.8156 1.71752C18.8579 2.0413 18.8016 2.37916 18.8297 2.70294C18.8579 3.11118 18.8016 3.3505 18.2807 3.3505C17.788 3.3505 17.7035 3.15341 17.7035 2.71701C17.6895 1.09812 17.6754 1.08404 16.0283 1.28112C14.2123 1.49228 12.5231 2.06945 10.8901 2.84371C10.4396 3.05487 10.4255 3.26603 10.6789 3.61797C10.876 3.89951 11.0168 4.23737 11.2279 4.51892C11.4813 4.87085 11.4391 5.06793 11.0449 5.32133C10.5804 5.61695 10.4396 5.39172 10.2707 5.03978C10.2566 4.99755 10.2284 4.95532 10.2003 4.91308C9.42603 3.60389 9.42603 3.58981 8.22946 4.51892C6.92026 5.53249 5.80815 6.72907 4.82273 8.05234C4.45672 8.53097 4.35818 8.86883 5.03389 9.1363C5.27321 9.22076 5.47029 9.40377 5.70961 9.51639C6.07562 9.69939 6.31494 9.85424 6.01931 10.347C5.70961 10.8678 5.45622 10.6285 5.13244 10.4314C3.76693 9.62901 3.76693 9.629 3.13345 11.0931C2.4155 12.7683 2.02133 14.5139 1.83833 16.3158C1.78202 16.8225 1.85241 17.1322 2.47181 17.0337C2.76744 16.9915 3.07714 17.0196 3.38684 17.0196C3.7247 17.0196 4.07663 16.9211 4.07663 17.5123C4.07663 18.0473 3.83732 18.1317 3.40092 18.1177C2.7252 18.0895 2.03541 18.0895 1.3597 18.1177C0.895145 18.1458 0.712139 18.0191 0.712139 17.4983C0.669907 9.446 6.58241 2.08353 14.4657 0.408323C24.2917 -1.67513 33.6673 4.4063 35.5396 14.2745C36.7221 20.553 34.8216 25.9728 30.2324 30.4354C30.0494 30.6325 29.8382 30.7169 29.7678 30.9703Z" fill="#0E3904"/>
<path d="M6.25863 28.7461C8.03237 28.7461 9.80612 28.7602 11.5799 28.732C12.1007 28.7179 12.2697 28.8587 12.2415 29.3936C12.1993 30.1116 12.2134 30.8436 12.2274 31.5756C12.2415 31.8994 12.1148 32.0261 11.777 32.0261C8.28577 32.012 4.79458 32.012 1.28931 32.0261C0.937377 32.0261 0.86699 31.8994 0.86699 31.5616C0.86699 29.3655 1.72571 27.6621 3.64023 26.5219C4.7805 25.8461 5.94892 25.1986 7.10327 24.5088C7.49743 24.2695 7.90568 24.002 7.97607 23.4671C8.08868 22.6928 7.52559 22.0734 6.65279 21.9608C5.45622 21.8059 4.48488 22.2846 3.71062 23.1292C3.27422 23.6078 3.04898 23.5093 2.71113 23.0588C2.26065 22.4676 1.75386 21.8904 1.233 21.3555C0.895145 21.0035 0.965532 20.7924 1.30339 20.5249C2.40142 19.6662 3.66839 19.1875 5.00574 18.9342C6.2727 18.6948 7.56782 18.6526 8.83479 18.9764C10.4115 19.3705 11.5799 20.2433 11.8896 21.9045C12.2415 23.6501 11.594 25.0578 10.144 26.0432C9.06002 26.7752 7.91976 27.4369 6.80764 28.1267C6.59648 28.2674 6.3994 28.4364 6.20232 28.5912C6.21639 28.6475 6.24455 28.7038 6.25863 28.7461Z" fill="#0E3904"/>
<path d="M18.8297 10.6285C18.8297 12.0362 18.8438 13.444 18.8297 14.8517C18.8297 15.2318 18.872 15.4993 19.2943 15.6541C19.7448 15.809 20.0826 16.175 20.2515 16.6395C20.3923 17.0337 20.6457 17.0759 20.9976 17.0759C22.6447 17.0619 24.2777 17.0478 25.9247 17.09C26.2907 17.09 26.8961 16.7522 26.882 17.639C26.8679 18.4696 26.3048 18.1458 25.9529 18.1599C24.3058 18.188 22.6728 18.188 21.0258 18.1599C20.6457 18.1599 20.4064 18.2444 20.2234 18.6244C19.7448 19.5536 18.8156 19.9477 17.8021 19.7506C16.9434 19.5817 16.2676 18.8497 16.0987 17.9065C15.9439 17.0196 16.4084 16.0905 17.2953 15.6541C17.6613 15.4711 17.7317 15.274 17.7317 14.908C17.7176 12.1207 17.7176 9.33338 17.7317 6.53198C17.7317 6.16597 17.5909 5.74365 18.2666 5.72957C18.9846 5.7155 18.8438 6.16597 18.8438 6.56014C18.8297 7.91157 18.8297 9.26299 18.8297 10.6285ZM18.2807 18.723C18.872 18.723 19.3928 18.2021 19.4069 17.6109C19.421 16.9915 18.9423 16.4988 18.3089 16.4847C17.6472 16.4706 17.1404 16.9633 17.1545 17.6109C17.1545 18.2021 17.6895 18.723 18.2807 18.723Z" fill="#0E3904"/>
<path d="M3.75285 34.4193C3.75285 34.729 3.78101 35.0246 3.75285 35.3343C3.7247 35.6158 3.93586 36.0522 3.37276 36.0382C2.8519 36.0241 3.02083 35.6158 3.03491 35.3624C3.06306 34.8697 2.86598 34.743 2.38735 34.729C1.7961 34.7008 1.73979 34.9824 1.76794 35.4469C1.78202 35.7003 1.88056 36.0382 1.41601 36.0522C0.965532 36.0663 1.02184 35.7566 1.02184 35.4751C1.02184 34.7571 1.02184 34.0251 1.02184 33.2931C1.02184 33.0256 1.07815 32.8426 1.40193 32.8426C1.73979 32.8426 1.76794 33.0397 1.76794 33.3072C1.76794 33.7013 1.62717 34.1518 2.34511 34.1096C2.8519 34.0814 3.07714 33.9829 3.02083 33.4479C2.99267 33.1945 2.90821 32.8567 3.37276 32.8426C3.82324 32.8426 3.75285 33.1664 3.75285 33.4338C3.75285 33.7717 3.75285 34.0955 3.75285 34.4193Z" fill="#0E3904"/>
<path d="M15.5778 35.9819C15.0148 36.2071 14.7191 35.9255 14.508 35.4751C14.3953 35.2498 14.2827 34.9542 13.959 35.0387C13.6211 35.1231 13.7759 35.4188 13.7759 35.6299C13.7619 35.9115 13.7056 36.0663 13.3818 36.0522C13.0721 36.0382 13.058 35.8552 13.058 35.6299C13.058 34.8275 13.058 34.0392 13.058 33.2368C13.058 33.096 13.0439 32.9552 13.1988 32.8708C13.5366 32.6737 14.9444 32.913 15.1978 33.2227C15.4934 33.5605 15.6342 34.0251 15.3808 34.3207C14.8881 34.8838 15.2118 35.278 15.4793 35.7285C15.5356 35.8129 15.5497 35.8974 15.5778 35.9819ZM14.156 34.377C14.4939 34.4052 14.7332 34.3207 14.7473 33.9547C14.7473 33.6309 14.5361 33.5324 14.2405 33.5324C13.9449 33.5324 13.7478 33.5605 13.7759 33.9266C13.7759 34.2081 13.7759 34.4474 14.156 34.377Z" fill="#0E3904"/>
<path d="M6.42755 32.8426C7.24404 32.8567 7.96199 33.6169 7.97607 34.4474C7.97607 35.2921 7.20181 36.0663 6.35717 36.0522C5.49845 36.0382 4.79458 35.2639 4.83681 34.377C4.86497 33.5324 5.59699 32.8285 6.42755 32.8426ZM6.38532 33.5183C5.80815 33.5746 5.58291 33.9266 5.59699 34.4615C5.61107 34.9964 5.82223 35.3765 6.41348 35.3624C6.99065 35.3484 7.15958 34.9542 7.17366 34.4615C7.18773 33.9547 6.99065 33.5746 6.38532 33.5183Z" fill="#0E3904"/>
<path d="M11.8051 34.0673C11.777 34.4052 11.8473 34.7994 11.6925 35.1935C11.4532 35.7988 11.0027 36.0663 10.3833 36.0522C9.76389 36.0382 9.32749 35.7566 9.11633 35.1372C8.90517 34.4897 9.03187 33.8421 8.98964 33.1805C8.97556 32.9411 9.10226 32.8567 9.32749 32.8426C9.59496 32.8285 9.72166 32.9411 9.70758 33.2086C9.70758 33.5887 9.67943 33.9547 9.72166 34.3348C9.76389 34.7853 9.72166 35.3624 10.3974 35.3624C11.059 35.3624 11.0449 34.8134 11.0731 34.3489C11.1012 33.9829 11.0872 33.6028 11.0731 33.2227C11.0731 32.9693 11.1576 32.8426 11.4391 32.8426C11.7347 32.8426 11.791 32.9834 11.791 33.2368C11.791 33.5042 11.8051 33.7576 11.8051 34.0673Z" fill="#0E3904"/>
<path d="M17.788 36.0663C17.4501 36.0804 17.1404 35.9678 16.8307 35.8552C16.6055 35.7707 16.4647 35.6581 16.6055 35.3906C16.7181 35.1794 16.8307 35.0246 17.0701 35.2076C17.1123 35.2358 17.1545 35.2498 17.1967 35.2639C17.5205 35.3624 17.971 35.5877 18.0977 35.1935C18.2103 34.8416 17.6895 34.8557 17.4361 34.7571C17.0137 34.5882 16.5914 34.4193 16.5914 33.8562C16.6055 33.4198 16.8307 33.1241 17.2531 32.9552C17.788 32.7441 18.2666 32.8848 18.7312 33.1241C18.9001 33.2086 18.7875 33.3635 18.7312 33.4902C18.6467 33.6732 18.5341 33.7436 18.337 33.6591C18.0132 33.5324 17.5346 33.3212 17.4361 33.7013C17.3094 34.1518 17.9147 34.0814 18.2103 34.194C18.7453 34.3911 19.0831 34.6867 18.9564 35.278C18.8297 35.9255 18.3229 36.0382 17.788 36.0663Z" fill="#0E3904"/>
</svg>
