<svg width="20" height="20" viewBox="0 0 60 60" fill="none" xmlns="http://www.w3.org/2000/svg">
<circle cx="30" cy="30" r="30" fill="#0E3904"/>
<path d="M20.1802 15.0052C21.0826 15.0052 21.9733 14.9935 22.8758 15.0052C24.2587 15.0286 25.2666 16.0245 25.3135 17.4071C25.3604 19.1529 25.5831 20.8635 26.1105 22.5272C26.4386 23.5466 26.2628 24.4488 25.5479 25.3041C24.7627 26.2297 24.0829 27.2256 23.3446 28.1863C23.1688 28.409 23.1453 28.5847 23.2977 28.8659C25.126 32.2871 27.7512 34.8999 31.1735 36.7277C31.4313 36.8683 31.5954 36.8449 31.7946 36.6809C32.8142 35.8958 33.8573 35.1343 34.8652 34.3375C35.5801 33.7751 36.3654 33.6111 37.2209 33.8572C38.9906 34.3727 40.7838 34.6773 42.6355 34.7125C43.9716 34.7359 44.9795 35.7787 44.9912 37.1261C45.0029 38.9187 45.0029 40.7231 44.9912 42.5157C44.9795 43.992 43.9481 45.023 42.4714 44.9996C36.1778 44.9293 30.5171 43.0078 25.5713 39.1062C20.2622 34.8999 16.9103 29.4634 15.5391 22.8319C15.1758 21.0861 15 19.3169 15 17.536C15 16.0245 16.0196 15.0169 17.5432 15.0052C18.4222 15.0052 19.3012 15.0052 20.1802 15.0052Z" fill="white"/>
</svg>
