<svg width="40" height="40" viewBox="0 0 40 40" fill="none" xmlns="http://www.w3.org/2000/svg">
<rect width="40" height="40" rx="6.4" fill="white"/>
<path fill-rule="evenodd" clip-rule="evenodd" d="M32.2188 19.783C32.2188 12.8336 26.6181 7.19995 19.7094 7.19995C12.8006 7.19995 7.20001 12.8336 7.20001 19.783C7.20001 26.0636 11.7745 31.2693 17.7548 32.2133V23.4204H14.5786V19.783H17.7548V17.0108C17.7548 13.8572 19.6224 12.1152 22.4798 12.1152C23.8484 12.1152 25.28 12.361 25.28 12.361V15.4576H23.7026C22.1486 15.4576 21.664 16.4276 21.664 17.4227V19.783H25.1334L24.5788 23.4204H21.664V32.2133C27.6443 31.2693 32.2188 26.0636 32.2188 19.783Z" fill="#1778F2"/>
</svg>
