<svg width="40" height="40" viewBox="0 0 40 40" fill="none" xmlns="http://www.w3.org/2000/svg">
<rect width="40" height="40" rx="6.4" fill="white"/>
<path fill-rule="evenodd" clip-rule="evenodd" d="M32.5131 19.991C32.5131 19.1042 32.4335 18.2515 32.2857 17.4329H20.5067V22.2707H27.2376C26.9476 23.834 26.0665 25.1586 24.7419 26.0454V29.1834H28.7839C31.1488 27.0062 32.5131 23.7999 32.5131 19.991Z" fill="#1778F2"/>
<path fill-rule="evenodd" clip-rule="evenodd" d="M20.5066 32.2134C23.8834 32.2134 26.7145 31.0935 28.7838 29.1834L24.7418 26.0453C23.6219 26.7957 22.1893 27.2392 20.5066 27.2392C17.2492 27.2392 14.492 25.0391 13.5086 22.083H9.3302V25.3234C11.3881 29.4108 15.6176 32.2134 20.5066 32.2134Z" fill="#34A853"/>
<path fill-rule="evenodd" clip-rule="evenodd" d="M13.5087 22.083C13.2585 21.3326 13.1164 20.531 13.1164 19.7067C13.1164 18.8824 13.2585 18.0809 13.5087 17.3305V14.0901H9.33032C8.48327 15.7785 8.00006 17.6886 8.00006 19.7067C8.00006 21.7248 8.48327 23.635 9.33032 25.3234L13.5087 22.083Z" fill="#FBBC05"/>
<path fill-rule="evenodd" clip-rule="evenodd" d="M20.5066 12.1742C22.3428 12.1742 23.9914 12.8052 25.2876 14.0445L28.8747 10.4574C26.7088 8.43925 23.8777 7.19995 20.5066 7.19995C15.6176 7.19995 11.3881 10.0026 9.3302 14.09L13.5086 17.3304C14.492 14.3742 17.2492 12.1742 20.5066 12.1742Z" fill="#EA4335"/>
</svg>
