<svg width="273" height="110" viewBox="0 0 273 110" fill="none" xmlns="http://www.w3.org/2000/svg">
<g filter="url(#filter0_d_1_10459)">
<rect x="15" y="15" width="243" height="80" rx="10" fill="black"/>
</g>
<path d="M38.0079 57.1726C37.942 55.3288 38.2834 53.5587 38.9695 51.8446C40.8827 47.0741 46.3229 43.1398 53.0324 45.956C53.4431 46.1274 53.8639 46.2764 54.2796 46.4366C55.3173 46.8371 56.328 46.821 57.3876 46.4286C59.6354 45.5956 61.8848 44.7049 64.3861 44.9292C67.2338 45.1855 69.7215 46.1402 71.6026 48.2804C71.9997 48.7337 72.1467 49.0157 71.4741 49.4386C65.5978 53.1198 66.3617 61.7445 72.4476 64.6584C73.1388 64.99 73.2808 65.3071 72.9901 65.9976C71.7344 68.9739 69.9953 71.6636 67.7509 74.0488C65.9899 75.9214 63.8301 76.3892 61.322 75.5738C59.9751 75.1349 58.6788 74.5342 57.2288 74.3932C55.3055 74.2058 53.558 74.7809 51.8477 75.4745C49.2484 76.5286 47.0868 75.915 45.2126 74.0392C44.9219 73.7492 44.6413 73.4481 44.3743 73.1389C40.352 68.495 38.1465 63.2022 38.0079 57.1726Z" fill="white"/>
<path d="M64.2632 36.2808C64.1804 39.9092 60.9811 43.7057 57.3036 44.3721C55.5984 44.6813 55.4936 44.5932 55.6119 43.0041C55.8688 39.5295 58.8804 35.8595 63.7258 35.0185C64.1331 34.948 64.3021 35.0778 64.2666 35.4719C64.248 35.6833 64.2632 35.8996 64.2632 36.2808Z" fill="white"/>
<path d="M97.5977 46.0001V35.7531H101.916C103.009 35.7531 103.97 35.9678 104.8 36.3972C105.639 36.8266 106.288 37.4268 106.747 38.1978C107.215 38.9687 107.449 39.8617 107.449 40.8766C107.449 41.8916 107.215 42.7845 106.747 43.5555C106.288 44.3264 105.639 44.9266 104.8 45.356C103.97 45.7854 103.009 46.0001 101.916 46.0001H97.5977ZM99.0616 44.7266H101.828C102.677 44.7266 103.409 44.5655 104.024 44.2435C104.649 43.9214 105.132 43.4725 105.473 42.8967C105.815 42.3112 105.986 41.6378 105.986 40.8766C105.986 40.1057 105.815 39.4323 105.473 38.8565C105.132 38.2807 104.649 37.8318 104.024 37.5098C103.409 37.1877 102.677 37.0267 101.828 37.0267H99.0616V44.7266ZM113.322 46.1172C112.463 46.1172 111.692 45.9318 111.009 45.561C110.326 45.1901 109.784 44.6827 109.384 44.0386C108.994 43.3847 108.799 42.6479 108.799 41.8281C108.799 41.0181 108.994 40.2911 109.384 39.647C109.784 39.0029 110.326 38.4954 111.009 38.1246C111.692 37.7537 112.463 37.5683 113.322 37.5683C114.191 37.5683 114.962 37.7537 115.635 38.1246C116.318 38.4954 116.855 39.0029 117.245 39.647C117.645 40.2911 117.845 41.0181 117.845 41.8281C117.845 42.6479 117.645 43.3847 117.245 44.0386C116.855 44.6827 116.318 45.1901 115.635 45.561C114.962 45.9318 114.191 46.1172 113.322 46.1172ZM113.322 44.8876C113.917 44.8876 114.444 44.7558 114.903 44.4924C115.371 44.2289 115.737 43.8678 116.001 43.4091C116.274 42.9407 116.411 42.4186 116.411 41.8428C116.411 41.2475 116.274 40.7254 116.001 40.2764C115.737 39.8178 115.371 39.4567 114.903 39.1932C114.444 38.9297 113.917 38.798 113.322 38.798C112.736 38.798 112.21 38.9297 111.741 39.1932C111.273 39.4469 110.902 39.8031 110.629 40.2618C110.365 40.7205 110.233 41.2475 110.233 41.8428C110.233 42.4186 110.365 42.9407 110.629 43.4091C110.902 43.8678 111.273 44.2289 111.741 44.4924C112.21 44.7558 112.736 44.8876 113.322 44.8876ZM121.484 46.0001L118.673 37.6854H120.137L122.67 45.2828H121.938L124.558 37.6854H125.89L128.452 45.2828H127.749L130.311 37.6854H131.687L128.877 46.0001H127.369L124.997 39.0468H125.393L123.006 46.0001H121.484ZM133.605 46.0001V37.6854H134.776L140.119 44.2435H139.578V37.6854H140.998V46.0001H139.827L134.469 39.442H135.025V46.0001H133.605ZM143.841 46.0001V37.6854H145.261V44.8144H149.725V46.0001H143.841ZM154.822 46.1172C153.963 46.1172 153.192 45.9318 152.509 45.561C151.826 45.1901 151.284 44.6827 150.884 44.0386C150.494 43.3847 150.298 42.6479 150.298 41.8281C150.298 41.0181 150.494 40.2911 150.884 39.647C151.284 39.0029 151.826 38.4954 152.509 38.1246C153.192 37.7537 153.963 37.5683 154.822 37.5683C155.69 37.5683 156.461 37.7537 157.135 38.1246C157.818 38.4954 158.355 39.0029 158.745 39.647C159.145 40.2911 159.345 41.0181 159.345 41.8281C159.345 42.6479 159.145 43.3847 158.745 44.0386C158.355 44.6827 157.818 45.1901 157.135 45.561C156.461 45.9318 155.69 46.1172 154.822 46.1172ZM154.822 44.8876C155.417 44.8876 155.944 44.7558 156.403 44.4924C156.871 44.2289 157.237 43.8678 157.501 43.4091C157.774 42.9407 157.911 42.4186 157.911 41.8428C157.911 41.2475 157.774 40.7254 157.501 40.2764C157.237 39.8178 156.871 39.4567 156.403 39.1932C155.944 38.9297 155.417 38.798 154.822 38.798C154.236 38.798 153.709 38.9297 153.241 39.1932C152.772 39.4469 152.402 39.8031 152.128 40.2618C151.865 40.7205 151.733 41.2475 151.733 41.8428C151.733 42.4186 151.865 42.9407 152.128 43.4091C152.402 43.8678 152.772 44.2289 153.241 44.4924C153.709 44.7558 154.236 44.8876 154.822 44.8876ZM159.832 46.0001L163.638 37.6854H165.044L168.864 46.0001H167.43L164.107 38.432H164.59L161.223 46.0001H159.832ZM161.574 44.0239L161.955 42.8967H166.522L166.903 44.0239H161.574ZM170.273 46.0001V37.6854H173.889C174.826 37.6854 175.636 37.8562 176.319 38.1978C177.012 38.5393 177.544 39.0224 177.914 39.647C178.295 40.2716 178.485 41.0035 178.485 41.8428C178.485 42.682 178.295 43.414 177.914 44.0386C177.544 44.6631 177.012 45.1462 176.319 45.4878C175.636 45.8293 174.826 46.0001 173.889 46.0001H170.273ZM171.693 44.8144H173.83C174.513 44.8144 175.094 44.6973 175.572 44.4631C176.05 44.2191 176.416 43.8727 176.67 43.4237C176.924 42.9748 177.051 42.4478 177.051 41.8428C177.051 41.228 176.924 40.701 176.67 40.2618C176.416 39.8129 176.05 39.4664 175.572 39.2225C175.094 38.9785 174.513 38.8565 173.83 38.8565H171.693V44.8144ZM188.23 46.1172C187.371 46.1172 186.601 45.9318 185.917 45.561C185.234 45.1901 184.693 44.6827 184.292 44.0386C183.902 43.3847 183.707 42.6479 183.707 41.8281C183.707 41.0181 183.902 40.2911 184.292 39.647C184.693 39.0029 185.234 38.4954 185.917 38.1246C186.601 37.7537 187.371 37.5683 188.23 37.5683C189.099 37.5683 189.87 37.7537 190.543 38.1246C191.226 38.4954 191.763 39.0029 192.153 39.647C192.554 40.2911 192.754 41.0181 192.754 41.8281C192.754 42.6479 192.554 43.3847 192.153 44.0386C191.763 44.6827 191.226 45.1901 190.543 45.561C189.87 45.9318 189.099 46.1172 188.23 46.1172ZM188.23 44.8876C188.826 44.8876 189.353 44.7558 189.811 44.4924C190.28 44.2289 190.646 43.8678 190.909 43.4091C191.182 42.9407 191.319 42.4186 191.319 41.8428C191.319 41.2475 191.182 40.7254 190.909 40.2764C190.646 39.8178 190.28 39.4567 189.811 39.1932C189.353 38.9297 188.826 38.798 188.23 38.798C187.645 38.798 187.118 38.9297 186.649 39.1932C186.181 39.4469 185.81 39.8031 185.537 40.2618C185.273 40.7205 185.142 41.2475 185.142 41.8428C185.142 42.4186 185.273 42.9407 185.537 43.4091C185.81 43.8678 186.181 44.2289 186.649 44.4924C187.118 44.7558 187.645 44.8876 188.23 44.8876ZM194.818 46.0001V37.6854H195.989L201.333 44.2435H200.791V37.6854H202.211V46.0001H201.04L195.682 39.442H196.238V46.0001H194.818ZM210.464 46.0001V38.8565H207.624V37.6854H214.724V38.8565H211.884V46.0001H210.464ZM216.204 46.0001V37.6854H217.624V41.1987H222.177V37.6854H223.597V46.0001H222.177V42.3698H217.624V46.0001H216.204ZM227.626 41.1987H232.003V42.3551H227.626V41.1987ZM227.86 44.8144H232.676V46.0001H226.44V37.6854H232.515V38.8565H227.86V44.8144Z" fill="white"/>
<path d="M105.874 69.0529H98.2622L96.81 72.5662H92.922L100.23 56.171H103.977L111.308 72.5662H107.326L105.874 69.0529ZM104.68 66.172L102.08 59.895L99.4801 66.172H104.68ZM120.106 56.171C121.558 56.171 122.815 56.413 123.877 56.8971C124.954 57.3811 125.782 58.0681 126.359 58.9582C126.937 59.8482 127.226 60.9022 127.226 62.1201C127.226 63.3224 126.937 64.3764 126.359 65.282C125.782 66.172 124.954 66.8591 123.877 67.3431C122.815 67.8116 121.558 68.0458 120.106 68.0458H116.803V72.5662H113.009V56.171H120.106ZM119.895 64.9541C121.035 64.9541 121.901 64.7121 122.495 64.228C123.088 63.7284 123.385 63.0257 123.385 62.1201C123.385 61.1988 123.088 60.4962 122.495 60.0121C121.901 59.5125 121.035 59.2626 119.895 59.2626H116.803V64.9541H119.895ZM137.032 56.171C138.484 56.171 139.741 56.413 140.803 56.8971C141.88 57.3811 142.707 58.0681 143.285 58.9582C143.863 59.8482 144.152 60.9022 144.152 62.1201C144.152 63.3224 143.863 64.3764 143.285 65.282C142.707 66.172 141.88 66.8591 140.803 67.3431C139.741 67.8116 138.484 68.0458 137.032 68.0458H133.729V72.5662H129.935V56.171H137.032ZM136.821 64.9541C137.961 64.9541 138.827 64.7121 139.421 64.228C140.014 63.7284 140.311 63.0257 140.311 62.1201C140.311 61.1988 140.014 60.4962 139.421 60.0121C138.827 59.5125 137.961 59.2626 136.821 59.2626H133.729V64.9541H136.821ZM159.11 72.8472C157.814 72.8472 156.557 72.6755 155.339 72.3319C154.136 71.9728 153.168 71.5122 152.434 70.9501L153.723 68.0926C154.425 68.6079 155.261 69.0217 156.229 69.334C157.197 69.6463 158.165 69.8024 159.133 69.8024C160.21 69.8024 161.007 69.6463 161.522 69.334C162.037 69.0061 162.295 68.5767 162.295 68.0458C162.295 67.6554 162.139 67.3353 161.826 67.0855C161.53 66.82 161.139 66.6092 160.655 66.4531C160.187 66.297 159.547 66.1252 158.735 65.9378C157.486 65.6411 156.463 65.3445 155.667 65.0478C154.87 64.7511 154.183 64.2749 153.605 63.6191C153.043 62.9633 152.762 62.0889 152.762 60.9958C152.762 60.0434 153.02 59.1846 153.535 58.4195C154.05 57.6387 154.823 57.022 155.854 56.5691C156.9 56.1163 158.173 55.8899 159.672 55.8899C160.718 55.8899 161.741 56.0148 162.74 56.2647C163.739 56.5145 164.614 56.8736 165.363 57.3421L164.192 60.2229C162.677 59.3641 161.163 58.9347 159.648 58.9347C158.586 58.9347 157.798 59.1065 157.283 59.45C156.783 59.7935 156.533 60.2464 156.533 60.8085C156.533 61.3706 156.822 61.7922 157.4 62.0732C157.993 62.3387 158.891 62.6041 160.093 62.8696C161.342 63.1663 162.365 63.4629 163.161 63.7596C163.958 64.0563 164.637 64.5247 165.199 65.1649C165.777 65.8051 166.066 66.6717 166.066 67.7647C166.066 68.7016 165.8 69.5604 165.269 70.3411C164.754 71.1062 163.973 71.7152 162.927 72.168C161.881 72.6208 160.608 72.8472 159.11 72.8472ZM171.826 59.2626H166.579V56.171H180.867V59.2626H175.62V72.5662H171.826V59.2626ZM190.619 72.8472C188.917 72.8472 187.379 72.4803 186.005 71.7464C184.647 71.0125 183.577 70.0054 182.797 68.725C182.031 67.429 181.649 65.9769 181.649 64.3686C181.649 62.7603 182.031 61.3159 182.797 60.0356C183.577 58.7396 184.647 57.7246 186.005 56.9907C187.379 56.2569 188.917 55.8899 190.619 55.8899C192.321 55.8899 193.852 56.2569 195.21 56.9907C196.568 57.7246 197.638 58.7396 198.419 60.0356C199.2 61.3159 199.59 62.7603 199.59 64.3686C199.59 65.9769 199.2 67.429 198.419 68.725C197.638 70.0054 196.568 71.0125 195.21 71.7464C193.852 72.4803 192.321 72.8472 190.619 72.8472ZM190.619 69.615C191.587 69.615 192.462 69.3964 193.243 68.9592C194.023 68.5064 194.632 67.8818 195.069 67.0855C195.522 66.2891 195.749 65.3835 195.749 64.3686C195.749 63.3536 195.522 62.448 195.069 61.6517C194.632 60.8553 194.023 60.2385 193.243 59.8013C192.462 59.3485 191.587 59.1221 190.619 59.1221C189.651 59.1221 188.777 59.3485 187.996 59.8013C187.215 60.2385 186.599 60.8553 186.146 61.6517C185.709 62.448 185.49 63.3536 185.49 64.3686C185.49 65.3835 185.709 66.2891 186.146 67.0855C186.599 67.8818 187.215 68.5064 187.996 68.9592C188.777 69.3964 189.651 69.615 190.619 69.615ZM212.888 72.5662L209.726 67.9989H209.538H206.236V72.5662H202.441V56.171H209.538C210.99 56.171 212.247 56.413 213.309 56.8971C214.387 57.3811 215.214 58.0681 215.792 58.9582C216.37 59.8482 216.658 60.9022 216.658 62.1201C216.658 63.338 216.362 64.392 215.768 65.282C215.191 66.1564 214.363 66.8278 213.286 67.2963L216.963 72.5662H212.888ZM212.817 62.1201C212.817 61.1988 212.521 60.4962 211.927 60.0121C211.334 59.5125 210.467 59.2626 209.327 59.2626H206.236V64.9775H209.327C210.467 64.9775 211.334 64.7277 211.927 64.228C212.521 63.7284 212.817 63.0257 212.817 62.1201ZM232.359 69.5213V72.5662H219.665V56.171H232.055V59.2158H223.436V62.7759H231.048V65.727H223.436V69.5213H232.359Z" fill="white"/>
<defs>
<filter id="filter0_d_1_10459" x="0.361446" y="0.361446" width="272.277" height="109.277" filterUnits="userSpaceOnUse" color-interpolation-filters="sRGB">
<feFlood flood-opacity="0" result="BackgroundImageFix"/>
<feColorMatrix in="SourceAlpha" type="matrix" values="0 0 0 0 0 0 0 0 0 0 0 0 0 0 0 0 0 0 127 0" result="hardAlpha"/>
<feOffset/>
<feGaussianBlur stdDeviation="7.31928"/>
<feComposite in2="hardAlpha" operator="out"/>
<feColorMatrix type="matrix" values="0 0 0 0 1 0 0 0 0 1 0 0 0 0 1 0 0 0 0.25 0"/>
<feBlend mode="normal" in2="BackgroundImageFix" result="effect1_dropShadow_1_10459"/>
<feBlend mode="normal" in="SourceGraphic" in2="effect1_dropShadow_1_10459" result="shape"/>
</filter>
</defs>
</svg>
