<svg width="37" height="37" viewBox="0 0 37 37" fill="none" xmlns="http://www.w3.org/2000/svg">
<path d="M36.0592 29.37C36.0308 29.8524 35.818 30.2354 35.4916 30.5618C34.8532 31.2003 34.2289 31.8387 33.5762 32.463C32.7817 33.2292 31.9871 33.2292 31.2068 32.463C27.2056 28.4761 23.2187 24.475 19.2034 20.488C18.9055 20.1901 18.8913 19.9915 19.0899 19.6509C19.9554 18.1328 21.133 16.941 22.6512 16.0897C22.9917 15.891 23.2045 15.9052 23.5025 16.2032C27.4894 20.2043 31.4905 24.2054 35.4916 28.1923C35.8322 28.5187 36.0308 28.9017 36.0592 29.37Z" fill="#0E3904"/>
<path d="M15.6421 6.29968C18.2244 8.88196 20.7783 11.4501 23.3748 14.0465C20.4236 15.2525 18.3095 17.3666 17.0184 20.5022C16.5928 20.034 16.2806 19.6651 15.9401 19.3104C13.8686 17.2389 11.8113 15.1674 9.72558 13.0959C9.37088 12.7412 9.20062 12.5851 9.8249 12.3014C12.393 11.1663 14.2375 9.27924 15.4009 6.72533C15.4577 6.58345 15.4861 6.37063 15.6421 6.29968Z" fill="#0E3904"/>
<path d="M15.9117 3.67484C15.8833 3.22081 16.082 2.85191 16.4083 2.53977C17.0752 1.87292 17.742 1.19187 18.4231 0.53921C19.1609 -0.170208 19.9554 -0.184395 20.6648 0.525023C23.5025 3.33432 26.326 6.1578 29.1353 8.99547C29.8021 9.67651 29.8021 10.4994 29.1353 11.2089C28.4684 11.9183 27.7874 12.5993 27.078 13.2662C26.3402 13.9614 25.5456 13.9472 24.822 13.2236C22.0127 10.4285 19.2034 7.6192 16.3941 4.80991C16.082 4.49776 15.8833 4.12887 15.9117 3.67484Z" fill="#0E3904"/>
<path d="M6.70346 12.8831C7.1433 12.8547 7.5122 13.0392 7.82434 13.3655C10.6478 16.189 13.4713 19.0125 16.2948 21.8359C16.9758 22.517 16.9616 23.3257 16.2948 24.0351C15.6279 24.7445 14.9469 25.4256 14.2375 26.0924C13.5281 26.7593 12.6768 26.7451 11.9673 26.0499C9.15805 23.2548 6.34875 20.4455 3.55364 17.622C2.84422 16.9126 2.85842 16.1038 3.56784 15.366C4.24888 14.6708 4.94411 13.9898 5.62515 13.3087C5.9231 13.0392 6.26362 12.8689 6.70346 12.8831Z" fill="#0E3904"/>
<path d="M10.5201 36.0385C7.25681 36.0385 3.99349 36.0243 0.730167 36.0527C0.120067 36.0527 -0.0360099 35.8824 0.00655515 35.3007C0.0633086 34.7332 0.0491202 34.1656 0.00655515 33.5981C-0.0360099 33.1157 0.176822 33.0164 0.616661 33.0164C2.8868 33.0305 5.15694 33.0305 7.42707 33.0305C11.7545 33.0305 16.082 33.0447 20.3952 33.0164C21.0621 33.0164 21.2607 33.215 21.1898 33.8535C21.1472 34.3217 21.1472 34.8041 21.1898 35.2723C21.2465 35.8682 21.0905 36.081 20.4378 36.0669C17.1461 36.0243 13.826 36.0385 10.5201 36.0385Z" fill="#0E3904"/>
<path d="M10.6762 31.4982C8.33513 31.4982 5.99405 31.484 3.65297 31.5124C3.15638 31.5124 2.95775 31.3705 3.02869 30.8739C3.05706 30.6185 3.02868 30.349 3.04287 30.0936C3.08544 29.0578 3.65297 28.4761 4.68872 28.4477C5.72447 28.4193 6.77441 28.4335 7.81016 28.4335C10.662 28.4335 13.5281 28.4193 16.3799 28.4335C17.8413 28.4335 18.7919 29.9659 18.1677 31.3138C18.0258 31.6117 17.7562 31.4698 17.5434 31.4698C15.2591 31.4982 12.9605 31.4982 10.6762 31.4982Z" fill="#0E3904"/>
</svg>
