<svg width="23" height="41" viewBox="0 0 23 41" fill="none" xmlns="http://www.w3.org/2000/svg">
<path d="M22.9108 20.9326C22.9108 26.4543 22.9154 31.9777 22.9076 37.4994C22.9045 39.3207 22.1385 40.4166 20.6329 40.7793C20.3343 40.8512 20.0139 40.8575 19.7043 40.8575C14.2857 40.8622 8.8687 40.8638 3.45012 40.8591C1.49124 40.8575 0.324975 39.7616 0.259314 37.8074C0.21554 36.5067 0.248371 35.2029 0.246807 33.9006C0.246807 24.1327 0.246807 14.3649 0.248371 4.59551C0.248371 4.20623 0.257751 3.81383 0.299961 3.42612C0.456297 1.97064 1.59129 0.86222 3.06241 0.855967C8.74051 0.832516 14.4202 0.832516 20.0983 0.855967C21.5678 0.86222 22.7028 1.9722 22.8576 3.43081C22.8982 3.81852 22.9076 4.21092 22.9076 4.6002C22.9123 10.0438 22.9108 15.489 22.9108 20.9326ZM20.7346 18.7423C20.7346 14.6541 20.7283 10.5675 20.7439 6.47935C20.7455 5.96657 20.6392 5.74301 20.0623 5.74614C14.4124 5.7649 8.7624 5.7649 3.11243 5.74614C2.5465 5.74457 2.42143 5.94625 2.42143 6.46997C2.4355 14.6197 2.43707 22.7679 2.41831 30.9177C2.41674 31.5212 2.61529 31.6447 3.17966 31.6415C8.77803 31.6212 14.3748 31.6181 19.9732 31.6447C20.6126 31.6478 20.7486 31.4414 20.7455 30.8489C20.7236 26.8139 20.7346 22.7789 20.7346 18.7423ZM11.553 3.99518C12.8256 3.99518 14.0997 3.98111 15.3723 4.00143C15.8569 4.00925 16.1102 3.83572 16.1117 3.34014C16.1149 2.82892 15.8819 2.58816 15.3504 2.58973C12.8302 2.60067 10.3101 2.60067 7.78999 2.58973C7.24594 2.58816 7.04271 2.86019 7.05052 3.3589C7.05834 3.86386 7.33818 4.00769 7.81031 3.99987C9.05787 3.98267 10.3054 3.99518 11.553 3.99518ZM11.603 34.2914C10.5853 34.282 9.74418 35.0809 9.71604 36.0846C9.6879 37.1023 10.5665 37.9872 11.5952 37.9778C12.5989 37.9684 13.4384 37.1289 13.4431 36.1315C13.4462 35.1309 12.6161 34.3008 11.603 34.2914Z" fill="#E8BF27"/>
</svg>
