<svg width="43" height="37" viewBox="0 0 43 37" fill="none" xmlns="http://www.w3.org/2000/svg">
<path d="M22.4945 25.3799C23.5684 25.8192 24.382 25.7216 25.0329 24.7941C25.2933 24.4199 25.7163 24.1758 26.1231 24.6151C26.5299 25.0545 26.1394 25.3474 25.8628 25.6402C25.5536 25.9494 25.2282 26.2423 24.9515 26.5677C24.5447 27.0396 24.0891 27.1698 23.5196 26.8769C22.6898 26.4376 21.925 26.942 21.1765 27.1535C20.8673 27.2349 20.4605 27.7068 21.03 28.1624C21.6646 28.6668 22.104 29.7082 22.8037 29.6919C23.3569 29.6919 23.9101 28.7644 24.4471 28.2275C29.8331 22.8415 35.2191 17.4555 40.6213 12.0695C41.0444 11.6464 41.1258 11.4186 40.6539 10.963C37.5785 7.93646 34.5357 4.89362 31.5091 1.81824C31.086 1.3789 30.8745 1.3789 30.4514 1.81824C28.8405 3.44543 27.2133 5.04007 25.6024 6.65099C25.3258 6.92761 25.0166 7.2205 24.6098 6.97642C24.1379 6.6998 24.2356 6.27673 24.561 5.9513C26.416 4.08003 28.271 2.22504 30.1585 0.38632C30.7443 -0.183195 31.2488 -0.118108 31.9159 0.549038C33.6895 2.3064 35.4469 4.08003 37.2043 5.83739C38.7338 7.36695 40.2796 8.8965 41.8092 10.4423C42.639 11.2722 42.6391 11.7278 41.7929 12.5577C35.7886 18.562 29.8006 24.5663 23.7962 30.5543C22.9989 31.3517 22.5433 31.3354 21.7297 30.5381C21.1277 29.9523 20.6395 29.1061 19.9235 28.8295C19.1588 28.5204 18.5242 29.4967 17.7431 29.7408C16.3925 30.1476 15.0745 30.6357 13.7402 31.075C13.3172 31.2215 12.9429 31.4005 12.6175 31.6934C12.2432 32.0188 12.048 32.2629 12.3246 32.8812C12.9104 34.2318 11.5273 34.7037 10.8927 35.501C10.4696 36.0542 9.86753 36.217 9.21665 35.9241C9.00512 35.8264 8.80986 35.6474 8.64714 35.4847C6.20636 33.0602 3.76558 30.6194 1.34107 28.1787C0.511209 27.3488 0.527481 26.7142 1.34107 25.868C1.68278 25.5263 2.02449 25.1684 2.38247 24.8267C2.90317 24.306 3.52151 24.1758 4.15611 24.5663C4.51409 24.7778 4.66053 24.6314 4.90461 24.4199C6.71079 22.9879 7.78473 21.1004 8.38679 18.9037C8.7285 17.6833 9.16784 16.4792 9.50955 15.2588C9.83499 14.0872 10.4696 13.1435 11.4134 12.395C13.1382 11.0281 14.863 9.67755 16.5878 8.32699C17.4177 7.67611 18.3126 7.39949 19.3866 7.56221C20.3791 7.72493 21.388 7.72493 22.3806 7.82256C22.7711 7.8551 23.243 7.82256 23.3894 8.32699C23.5359 8.76633 23.1942 9.02668 22.9338 9.28703C21.2578 10.9468 19.6144 12.639 17.9221 14.2825C17.4665 14.7218 17.2224 15.1449 17.4177 15.7958C17.7431 15.7795 17.8733 15.4703 18.0685 15.2913C21.5995 11.7766 25.1305 8.24563 28.6453 4.71463C29.1334 4.22648 29.5728 3.94986 30.2724 4.30784C30.7443 4.55192 31.2813 4.48683 31.7695 4.25902C32.2088 4.03122 32.5993 4.0963 32.941 4.45428C34.617 6.14656 36.3093 7.82256 38.0016 9.51483C38.2945 9.80773 38.4084 10.1332 38.2131 10.54C37.9202 11.1583 37.9039 11.7929 38.1968 12.4275C38.4084 12.8668 38.2782 13.2085 37.9528 13.5177C34.7147 16.7558 31.4766 19.9939 28.2385 23.232C27.9293 23.5412 27.5876 23.7039 27.2621 23.3459C26.8879 22.9391 27.1808 22.6137 27.4737 22.3045C30.4677 19.3105 33.4455 16.3165 36.4557 13.3387C36.83 12.9645 37.0741 12.639 36.8463 12.0858C36.7324 11.8092 36.651 11.4837 36.7812 11.2071C37.188 10.3284 36.6998 9.84027 36.114 9.28703C34.9099 8.148 33.7709 6.96015 32.5993 5.78858C32.2739 5.46314 29.589 5.47941 29.2636 5.78858C25.4072 9.64501 21.5507 13.4852 17.6943 17.3416C17.3038 17.7321 17.1736 19.5546 17.499 20.0265C17.8733 20.5797 18.4428 20.6448 18.9472 20.1892C20.1025 19.1315 21.0788 17.8786 22.3969 16.9836C22.7223 16.7558 22.5433 16.4304 22.5108 16.1538C22.2179 13.8757 23.6661 11.7929 25.8628 11.2885C28.092 10.784 30.3538 12.1021 31.0372 14.2988C31.7044 16.4792 30.6141 18.7735 28.4988 19.6359C28.0757 19.7986 27.7503 20.0265 27.4249 20.3356C26.0092 21.7675 24.5936 23.1669 23.1779 24.5988C22.9501 24.8429 22.7548 25.087 22.4945 25.3799ZM21.5182 9.02668C20.7371 8.94532 20.1676 8.91277 19.5981 8.81514C18.5404 8.63615 17.678 8.94532 16.8482 9.66128C15.644 10.719 14.4074 11.7278 13.0894 12.6228C11.5923 13.6479 10.8113 15.0147 10.3069 16.7395C9.39565 19.8963 8.63087 23.1669 5.73448 25.2823C5.34395 25.5752 5.42531 25.803 5.75075 26.1121C7.42675 27.7719 9.10275 29.4316 10.7462 31.1239C11.0879 31.4818 11.2994 31.4168 11.5761 31.075C12.0968 30.4567 12.7965 30.115 13.5612 29.8709C14.5864 29.5455 15.5952 29.155 16.6366 28.8458C18.0848 28.4065 19.2727 27.6091 20.1676 26.3888C21.2578 24.9243 22.4294 23.5574 23.78 22.3208C24.1379 21.9791 24.2519 21.7513 23.8125 21.377C23.3081 20.9377 23.243 20.3356 23.4383 19.7336C23.9752 18.1389 25.9929 17.1952 27.555 17.7647C27.7015 17.8135 27.8967 18.0576 28.0432 17.8135C28.1896 17.5857 28.092 17.3416 27.8967 17.1626C27.376 16.6907 26.7414 16.7233 26.1231 16.8372C24.5122 17.1138 23.0803 17.7809 21.925 18.9688C21.2253 19.6847 20.5093 20.3844 19.7934 21.1004C19.1425 21.735 18.3777 21.914 17.5478 21.5723C16.7017 21.2143 16.1322 20.596 16.1485 19.5871C16.1647 18.2528 16.1973 16.9348 16.1322 15.6005C16.0834 14.7218 16.36 14.0872 17.0109 13.4689C18.5242 12.0532 19.9561 10.5888 21.5182 9.02668ZM3.30997 25.445C3.11471 25.7216 2.93572 25.9982 2.72418 26.2423C1.82923 27.1861 1.81296 26.9257 2.70791 27.8369C4.72562 29.8709 6.75961 31.8886 8.79359 33.9226C9.83499 34.964 9.83499 34.964 10.8927 33.8738C11.2344 33.5321 11.2669 33.3206 10.9089 32.9626C8.54951 30.6194 6.19009 28.26 3.84694 25.9169C3.71676 25.7867 3.58659 25.6728 3.30997 25.445ZM29.41 17.3904C30.2562 16.1538 30.2399 14.7869 29.3938 13.6642C28.5964 12.5902 27.1482 12.1346 25.8465 12.5577C24.5773 12.9807 23.7312 14.1686 23.6823 15.4866C23.6498 16.1863 23.8613 16.2677 24.4471 16.0073C24.8051 15.8446 25.2119 15.7632 25.6187 15.6819C27.555 15.3076 28.6778 15.7795 29.41 17.3904ZM26.4323 18.741C25.9604 18.7572 24.6587 19.7498 24.5773 20.1729C24.5122 20.4658 24.74 20.6122 24.9027 20.7912C25.1305 21.0353 25.277 20.84 25.4397 20.6936C25.879 20.2543 26.3184 19.8149 26.7577 19.3756C26.8716 19.2454 27.132 19.1478 27.0343 18.9362C26.9042 18.6922 26.6438 18.741 26.4323 18.741Z" fill="#0E3904"/>
</svg>
