<svg width="274" height="110" viewBox="0 0 274 110" fill="none" xmlns="http://www.w3.org/2000/svg">
<g filter="url(#filter0_d_1_10468)">
<rect x="15" y="15" width="244" height="80" rx="10" fill="black"/>
</g>
<path d="M97.3658 49.1401C96.419 49.1401 95.5482 48.9882 94.7534 48.6843C93.9585 48.3687 93.2689 47.9304 92.6845 47.3693C92.1 46.7966 91.6442 46.1303 91.3169 45.3706C90.9896 44.6108 90.826 43.7751 90.826 42.8633C90.826 41.9516 90.9896 41.1159 91.3169 40.3561C91.6442 39.5964 92.1 38.936 92.6845 38.3749C93.2806 37.8022 93.9761 37.3638 94.7709 37.0599C95.5657 36.7443 96.4424 36.5866 97.4008 36.5866C98.371 36.5866 99.2593 36.7443 100.066 37.0599C100.872 37.3755 101.556 37.8489 102.117 38.4801L101.03 39.5672C100.528 39.0762 99.9782 38.7197 99.382 38.4976C98.7976 38.2639 98.1606 38.147 97.471 38.147C96.7696 38.147 96.1151 38.2639 95.5073 38.4976C94.9111 38.7314 94.391 39.0587 93.9468 39.4795C93.5144 39.9003 93.1754 40.4029 92.9299 40.9873C92.6962 41.5601 92.5793 42.1854 92.5793 42.8633C92.5793 43.5296 92.6962 44.1549 92.9299 44.7394C93.1754 45.3121 93.5144 45.8147 93.9468 46.2472C94.391 46.668 94.9111 46.9953 95.5073 47.2291C96.1034 47.4628 96.7521 47.5797 97.4534 47.5797C98.108 47.5797 98.7333 47.4804 99.3295 47.2816C99.9373 47.0713 100.498 46.7264 101.013 46.2472L102.012 47.5797C101.404 48.094 100.691 48.4856 99.873 48.7544C99.0665 49.0116 98.2307 49.1401 97.3658 49.1401ZM100.329 47.3518V42.7932H102.012V47.5797L100.329 47.3518ZM107.525 43.2491H112.768V44.6342H107.525V43.2491ZM107.806 47.5797H113.574V48.9999H106.105V39.0412H113.381V40.4438H107.806V47.5797ZM118.752 48.9999V40.4438H115.351V39.0412H123.854V40.4438H120.453V48.9999H118.752ZM132.09 48.9999V39.0412H133.79V48.9999H132.09ZM139.822 48.9999V40.4438H136.421V39.0412H144.924V40.4438H141.523V48.9999H139.822ZM157.648 49.1401C156.62 49.1401 155.696 48.9181 154.878 48.4739C154.06 48.0297 153.411 47.4219 152.932 46.6505C152.465 45.8673 152.231 44.9848 152.231 44.003C152.231 43.0328 152.465 42.162 152.932 41.3906C153.411 40.6191 154.06 40.0113 154.878 39.5672C155.696 39.123 156.62 38.9009 157.648 38.9009C158.689 38.9009 159.612 39.123 160.419 39.5672C161.237 40.0113 161.88 40.6191 162.347 41.3906C162.826 42.162 163.066 43.0328 163.066 44.003C163.066 44.9848 162.826 45.8673 162.347 46.6505C161.88 47.4219 161.237 48.0297 160.419 48.4739C159.612 48.9181 158.689 49.1401 157.648 49.1401ZM157.648 47.6674C158.361 47.6674 158.993 47.5096 159.542 47.194C160.103 46.8784 160.541 46.4459 160.857 45.8965C161.184 45.3355 161.348 44.7102 161.348 44.0205C161.348 43.3075 161.184 42.6822 160.857 42.1445C160.541 41.5951 160.103 41.1627 159.542 40.8471C158.993 40.5315 158.361 40.3737 157.648 40.3737C156.947 40.3737 156.316 40.5315 155.755 40.8471C155.194 41.151 154.75 41.5776 154.422 42.127C154.107 42.6763 153.949 43.3075 153.949 44.0205C153.949 44.7102 154.107 45.3355 154.422 45.8965C154.75 46.4459 155.194 46.8784 155.755 47.194C156.316 47.5096 156.947 47.6674 157.648 47.6674ZM166.416 48.9999V39.0412H167.818L174.218 46.8959H173.569V39.0412H175.27V48.9999H173.867L167.45 41.1451H168.117V48.9999H166.416Z" fill="white"/>
<path d="M100.06 64.5548H103.52V71.194C102.632 71.8641 101.603 72.3784 100.434 72.7369C99.2655 73.0953 98.0889 73.2745 96.9044 73.2745C95.2057 73.2745 93.6784 72.9161 92.3225 72.1992C90.9666 71.4667 89.899 70.4615 89.1198 69.1835C88.3561 67.89 87.9743 66.4328 87.9743 64.812C87.9743 63.1912 88.3561 61.7418 89.1198 60.4638C89.899 59.1703 90.9744 58.165 92.3459 57.4481C93.7173 56.7157 95.2602 56.3494 96.9746 56.3494C98.4084 56.3494 99.7097 56.591 100.879 57.0741C102.047 57.5572 103.029 58.2586 103.824 59.1781L101.393 61.4223C100.224 60.1911 98.8136 59.5755 97.1616 59.5755C96.1174 59.5755 95.1901 59.7937 94.3797 60.23C93.5693 60.6664 92.9381 61.282 92.4861 62.0768C92.0342 62.8717 91.8082 63.7834 91.8082 64.812C91.8082 65.825 92.0342 66.7289 92.4861 67.5237C92.9381 68.3186 93.5615 68.942 94.3563 69.3939C95.1667 69.8303 96.0862 70.0485 97.1148 70.0485C98.2058 70.0485 99.1876 69.8147 100.06 69.3472V64.5548ZM113.467 73.2512C112.033 73.2512 110.739 72.9551 109.586 72.3628C108.449 71.755 107.552 70.9212 106.898 69.8615C106.243 68.8017 105.916 67.6095 105.916 66.2847C105.916 64.96 106.243 63.7678 106.898 62.708C107.552 61.6327 108.449 60.7989 109.586 60.2067C110.739 59.5988 112.033 59.2949 113.467 59.2949C114.901 59.2949 116.186 59.5988 117.324 60.2067C118.477 60.7989 119.381 61.6327 120.036 62.708C120.69 63.7678 121.018 64.96 121.018 66.2847C121.018 67.6095 120.69 68.8017 120.036 69.8615C119.381 70.9212 118.477 71.755 117.324 72.3628C116.186 72.9551 114.901 73.2512 113.467 73.2512ZM113.467 70.2355C114.184 70.2355 114.831 70.0641 115.407 69.7212C115.999 69.3783 116.459 68.9108 116.786 68.3186C117.114 67.7108 117.277 67.0328 117.277 66.2847C117.277 65.5211 117.114 64.8431 116.786 64.2509C116.459 63.6431 115.999 63.1678 115.407 62.8249C114.831 62.482 114.184 62.3106 113.467 62.3106C112.75 62.3106 112.095 62.482 111.503 62.8249C110.927 63.1678 110.467 63.6431 110.124 64.2509C109.797 64.8431 109.633 65.5211 109.633 66.2847C109.633 67.0328 109.797 67.7108 110.124 68.3186C110.467 68.9108 110.927 69.3783 111.503 69.7212C112.095 70.0641 112.75 70.2355 113.467 70.2355ZM130.201 73.2512C128.767 73.2512 127.473 72.9551 126.32 72.3628C125.182 71.755 124.286 70.9212 123.632 69.8615C122.977 68.8017 122.65 67.6095 122.65 66.2847C122.65 64.96 122.977 63.7678 123.632 62.708C124.286 61.6327 125.182 60.7989 126.32 60.2067C127.473 59.5988 128.767 59.2949 130.201 59.2949C131.635 59.2949 132.92 59.5988 134.058 60.2067C135.211 60.7989 136.115 61.6327 136.77 62.708C137.424 63.7678 137.752 64.96 137.752 66.2847C137.752 67.6095 137.424 68.8017 136.77 69.8615C136.115 70.9212 135.211 71.755 134.058 72.3628C132.92 72.9551 131.635 73.2512 130.201 73.2512ZM130.201 70.2355C130.918 70.2355 131.564 70.0641 132.141 69.7212C132.733 69.3783 133.193 68.9108 133.52 68.3186C133.848 67.7108 134.011 67.0328 134.011 66.2847C134.011 65.5211 133.848 64.8431 133.52 64.2509C133.193 63.6431 132.733 63.1678 132.141 62.8249C131.564 62.482 130.918 62.3106 130.201 62.3106C129.484 62.3106 128.829 62.482 128.237 62.8249C127.66 63.1678 127.201 63.6431 126.858 64.2509C126.531 64.8431 126.367 65.5211 126.367 66.2847C126.367 67.0328 126.531 67.7108 126.858 68.3186C127.201 68.9108 127.66 69.3783 128.237 69.7212C128.829 70.0641 129.484 70.2355 130.201 70.2355ZM149.202 66.0977H152.569V71.5446C151.836 72.0901 150.971 72.5109 149.974 72.807C148.976 73.1031 147.994 73.2512 147.028 73.2512C145.548 73.2512 144.223 72.9551 143.054 72.3628C141.901 71.755 140.997 70.9212 140.342 69.8615C139.703 68.8017 139.384 67.6095 139.384 66.2847C139.384 64.96 139.711 63.7678 140.366 62.708C141.02 61.6327 141.924 60.7989 143.077 60.2067C144.246 59.5988 145.555 59.2949 147.005 59.2949C149.592 59.2949 151.548 60.0976 152.873 61.7028L150.441 63.8769C149.553 62.8327 148.423 62.3106 147.052 62.3106C145.898 62.3106 144.948 62.6769 144.2 63.4093C143.467 64.1418 143.101 65.1003 143.101 66.2847C143.101 67.4536 143.467 68.4043 144.2 69.1368C144.948 69.8693 145.914 70.2355 147.098 70.2355C147.846 70.2355 148.548 70.0952 149.202 69.8147V66.0977ZM155.775 59.5521H159.469V70.1186H166.038V72.994H155.775V59.5521ZM178.859 70.1654V72.994H168.035V59.5521H178.601V62.3807H171.682V64.8354H177.807V67.5237H171.682V70.1654H178.859ZM194.295 59.5521C196.15 59.5521 197.623 59.9963 198.713 60.8846C199.804 61.7573 200.35 62.9652 200.35 64.5081C200.35 66.0354 199.804 67.2432 198.713 68.1315C197.623 69.0043 196.15 69.4407 194.295 69.4407H191.864V72.994H188.17V59.5521H194.295ZM194.038 66.5886C194.895 66.5886 195.542 66.4094 195.978 66.051C196.415 65.6925 196.633 65.1782 196.633 64.5081C196.633 63.8379 196.415 63.3236 195.978 62.9652C195.542 62.6067 194.895 62.4275 194.038 62.4275H191.864V66.5886H194.038ZM203.055 59.5521H206.749V70.1186H213.318V72.994H203.055V59.5521ZM224.428 70.329H218.14L217.018 72.994H213.441L219.472 59.5521H223.119L229.174 72.994H225.527L224.428 70.329ZM223.306 67.664L221.296 62.8015L219.262 67.664H223.306ZM236.825 68.529V72.994H233.132V68.529L227.708 59.5521H231.612L235.095 65.2795L238.555 59.5521H242.272L236.825 68.529Z" fill="white"/>
<path fill-rule="evenodd" clip-rule="evenodd" d="M45.9741 60.8803C46.0198 60.9932 46.0423 61.1197 46.0287 61.2677C47.9221 59.3808 49.7621 57.4412 51.5671 55.4633C50.6374 54.4852 49.7078 53.5067 48.7781 52.5282C46.9183 50.5705 45.0583 48.6126 43.1962 46.6569C41.3893 44.7598 39.5811 42.8641 37.773 40.9686C36.2661 39.3888 34.7593 37.8092 33.2535 36.2288C33.1261 36.0953 33.0064 35.9536 32.8868 35.8119C32.839 35.7553 32.7911 35.6986 32.7428 35.6425C32.2168 36.1665 32.0064 36.8423 32.0034 37.5677C31.9956 39.5561 32.0033 41.5437 32.0109 43.531C32.0137 44.2627 32.0166 44.9943 32.0186 45.7259C32.0184 45.7256 32.0181 45.7254 32.0179 45.7251C32.0166 47.5718 32.0152 49.4185 32.0138 51.2652C32.0082 58.6515 32.0026 66.0375 32.0087 73.4226C32.0087 74.1223 32.2282 74.779 32.7496 75.2759C33.4461 74.5441 34.1427 73.8122 34.8392 73.0804C38.311 69.4329 41.7833 65.7848 45.2534 62.1333C45.434 61.9441 45.6069 61.746 45.7797 61.5481C45.8622 61.4536 45.9446 61.3592 46.0279 61.2658C46.0415 61.1186 46.0193 60.9927 45.9741 60.8803Z" fill="#51C8EC"/>
<path d="M51.5648 55.4648C48.775 52.5282 45.9867 49.5901 43.1939 46.6583C39.8827 43.1786 36.5654 39.7052 33.2527 36.2287C33.0743 36.0417 32.9112 35.8388 32.742 35.6423C33.5241 34.8243 34.4342 34.8754 35.3382 35.3068C36.1416 35.6902 36.9039 36.1727 37.6737 36.6281C39.6007 37.7688 41.5215 38.9224 43.4469 40.0679C48.1774 42.8846 52.9094 45.6997 57.6399 48.5164C57.771 48.5947 57.8945 48.689 58.021 48.7753C55.9066 51.012 53.7906 53.2488 51.6761 55.4855C51.635 55.4919 51.5999 55.4855 51.5648 55.4648Z" fill="#66BE61"/>
<path d="M51.5646 55.4651C51.5981 55.4859 51.6347 55.4922 51.6743 55.4859C51.8801 55.7175 52.0814 55.9556 52.2948 56.1809C54.1806 58.1827 56.0679 60.1814 57.9552 62.1817C53.1638 65.0464 48.3738 67.9126 43.5808 70.7725C41.0212 72.2999 38.4616 73.8289 35.8928 75.3403C34.5528 76.1279 33.6778 76.0928 32.7478 75.2764C36.9173 70.8955 41.0852 66.5163 45.2532 62.1354C45.52 61.8542 45.77 61.5571 46.0276 61.2679C47.9195 59.381 49.7596 57.4414 51.5646 55.4651Z" fill="#ED3A4C"/>
<path d="M57.9543 62.1817C56.0669 60.1814 54.1796 58.1827 52.2938 56.1808C52.0819 55.9555 51.8792 55.7174 51.6734 55.4858C53.7878 53.249 55.9038 51.0123 58.0183 48.7755C60.5535 50.2773 63.1146 51.7328 65.6163 53.297C67.5417 54.5016 67.5463 56.4284 65.6209 57.6331C63.0994 59.2084 60.5123 60.6703 57.9543 62.1817Z" fill="#FFCF0B"/>
<defs>
<filter id="filter0_d_1_10468" x="0.389212" y="0.389212" width="273.222" height="109.222" filterUnits="userSpaceOnUse" color-interpolation-filters="sRGB">
<feFlood flood-opacity="0" result="BackgroundImageFix"/>
<feColorMatrix in="SourceAlpha" type="matrix" values="0 0 0 0 0 0 0 0 0 0 0 0 0 0 0 0 0 0 127 0" result="hardAlpha"/>
<feOffset/>
<feGaussianBlur stdDeviation="7.30539"/>
<feComposite in2="hardAlpha" operator="out"/>
<feColorMatrix type="matrix" values="0 0 0 0 1 0 0 0 0 1 0 0 0 0 1 0 0 0 0.25 0"/>
<feBlend mode="normal" in2="BackgroundImageFix" result="effect1_dropShadow_1_10468"/>
<feBlend mode="normal" in="SourceGraphic" in2="effect1_dropShadow_1_10468" result="shape"/>
</filter>
</defs>
</svg>
