<svg width="32" height="37" viewBox="0 0 32 37" fill="none" xmlns="http://www.w3.org/2000/svg">
<path d="M31.2709 11.6333C31.3132 15.5076 31.1441 18.9451 30.2284 22.2981C28.566 28.4264 24.6495 32.5825 18.9156 35.0901C15.943 36.4003 15.9289 36.3863 12.9563 35.0901C5.98265 32.0471 2.05205 26.7359 0.995435 19.2269C0.516437 15.8175 0.516437 12.3941 0.643231 8.97068C0.72776 6.49117 1.96752 5.22323 4.41886 4.8992C5.27824 4.78649 6.13762 4.71605 6.99699 4.547C9.53286 4.02573 11.7729 2.94095 13.703 1.22219C13.9002 1.05313 14.0974 0.88407 14.2947 0.715012C15.3935 -0.228895 16.5065 -0.24298 17.5772 0.700927C18.6902 1.67301 19.8454 2.58874 21.1697 3.26498C23.2547 4.33568 25.4948 4.73014 27.7911 4.92738C29.5522 5.08235 30.9751 6.47708 31.1864 8.2381C31.3132 9.50603 31.2427 10.7881 31.2709 11.6333ZM24.9171 18.0576C24.9312 13.1408 20.8316 9.04112 15.9148 9.04112C11.0121 9.04112 6.96882 13.0703 6.91246 17.9871C6.8702 22.8898 10.9417 27.0035 15.8725 27.0317C20.8034 27.074 24.9031 22.9884 24.9171 18.0576Z" fill="#0E3904"/>
<path d="M22.8039 18.0576C22.7898 21.8191 19.6341 24.9608 15.8725 24.9326C12.1251 24.9044 9.02569 21.7627 9.02569 18.0435C9.03978 14.2819 12.2096 11.1403 15.9571 11.1684C19.7186 11.1966 22.818 14.3242 22.8039 18.0576ZM14.2806 21.9881C14.7314 21.9881 14.9991 21.7346 15.2667 21.4669C16.7742 19.9595 18.2816 18.452 19.7891 16.9446C20.3948 16.3388 20.4512 15.7612 20.0004 15.2963C19.5214 14.7891 18.9297 14.8314 18.2957 15.4653C17.3377 16.4233 16.3797 17.3813 15.4076 18.3393C15.0554 18.6774 14.7314 19.2269 14.3369 19.2832C13.9002 19.3537 13.6325 18.7056 13.2662 18.3816C12.745 17.9308 12.1251 17.8885 11.7024 18.2971C11.2798 18.7197 11.2798 19.3537 11.7729 19.8608C12.3364 20.4525 12.9281 21.0302 13.5057 21.6078C13.7311 21.8332 13.9988 21.9741 14.2806 21.9881Z" fill="#0E3904"/>
</svg>
