<svg width="25" height="24" viewBox="0 0 25 24" fill="none" xmlns="http://www.w3.org/2000/svg">
<path d="M8.51568 0.0958366C8.36474 0.149744 8.18145 0.235998 8.10598 0.284515C7.90113 0.419287 7.57229 0.834381 7.40517 1.16322C7.26501 1.43276 6.93078 2.40311 6.84453 2.76969C6.82296 2.85594 6.72593 3.10392 6.63428 3.31416L6.45639 3.7023L6.17067 3.74004C6.00895 3.76699 5.45369 3.78316 4.93617 3.77777C3.51838 3.77238 2.95774 3.91794 2.48873 4.41389C1.94965 4.98532 1.89574 5.77238 2.32162 7.01227C2.62351 7.89098 2.6828 8.09044 2.75289 8.50014C2.79062 8.72656 2.78523 8.73734 2.52647 8.97993C2.38631 9.1147 2.13294 9.31416 1.97122 9.42197C1.80949 9.52979 1.66394 9.62683 1.64777 9.643C1.63159 9.65917 1.48604 9.7616 1.32432 9.8748C0.402484 10.5055 -0.0449552 11.2117 0.00356223 11.9664C0.0305164 12.3061 0.224586 12.8236 0.397093 12.9907C0.44561 13.0446 0.623508 13.2225 0.785233 13.3842C0.941567 13.5514 1.09251 13.6861 1.10868 13.6861C1.13025 13.6861 1.21111 13.7454 1.29197 13.8155C1.37822 13.8856 1.57768 14.0257 1.73941 14.1228C2.1545 14.3815 2.72593 14.8721 2.75828 15.0123C2.79062 15.1416 2.60194 15.9826 2.48334 16.2414C2.38631 16.4516 2.19763 17.0123 2.16529 17.1902C2.14911 17.2656 2.11138 17.4705 2.07903 17.6484C1.91192 18.4947 2.26232 19.2818 2.95774 19.6322C3.39439 19.8532 3.96043 19.9341 5.04938 19.9287C5.5669 19.9233 6.08981 19.9395 6.21919 19.961C6.42943 19.9988 6.46178 20.0257 6.60194 20.3115C6.75288 20.6079 6.81218 20.7751 7.01164 21.4759C7.23267 22.2522 7.5669 22.926 7.84722 23.174C8.13832 23.4327 8.19762 23.4759 8.41326 23.5783C9.06016 23.8964 10.3054 23.4974 11.2273 22.6726C11.5723 22.3654 12.1868 21.988 12.3593 21.9772C12.5265 21.961 13.0009 22.236 13.5723 22.678C14.2354 23.1902 14.5965 23.4112 15.0709 23.5891C15.3674 23.7023 15.4806 23.7185 15.8095 23.6969C16.2569 23.6645 16.6882 23.4597 16.9308 23.1578C17.0116 23.0608 17.1087 22.9422 17.1464 22.8937C17.3566 22.6349 17.6909 21.7778 17.9065 20.9422C17.955 20.7643 18.0575 20.484 18.1437 20.3115C18.3 20.0096 18.3054 20.0042 18.5858 19.9664C18.7421 19.9395 19.2704 19.9233 19.761 19.9287C21.486 19.9341 22.1653 19.6753 22.548 18.8613C22.6612 18.6187 22.6882 18.4786 22.6936 18.1066C22.699 17.8532 22.6828 17.5621 22.6612 17.4543C22.6235 17.2656 22.3432 16.4031 22.1653 15.9125C22.1167 15.7885 22.0682 15.6053 22.0521 15.5082C22.0359 15.4112 22.0089 15.2549 21.9928 15.1632C21.9658 15.0177 21.9928 14.9637 22.1491 14.8074C22.3162 14.6349 22.8391 14.2252 23.0548 14.0904C23.6316 13.7346 24.176 13.2495 24.4402 12.8667C24.6235 12.5972 24.7744 12.1443 24.7744 11.8532C24.7744 11.6107 24.6289 11.1039 24.5264 10.9853C24.4833 10.9422 24.451 10.8829 24.451 10.8613C24.451 10.6996 23.761 10.0958 22.9955 9.57831C22.6828 9.36807 22.327 9.09313 22.1976 8.96375C21.9712 8.73734 21.9658 8.73195 22.0035 8.44623C22.0251 8.2899 22.1221 7.91793 22.2246 7.62144C22.6397 6.38694 22.6882 6.19287 22.6882 5.65378C22.6936 5.04462 22.5911 4.78047 22.2246 4.40311C21.7394 3.91255 21.3513 3.81012 19.8957 3.78856C19.2758 3.78316 18.6612 3.7616 18.5318 3.74004C18.3162 3.7077 18.2946 3.68613 18.1491 3.40042C18.0628 3.2333 17.9065 2.79125 17.7933 2.41929C17.6154 1.81551 17.4968 1.50823 17.2488 0.990715C17.1141 0.715782 16.7313 0.333033 16.4348 0.187481C15.5885 -0.233004 14.7744 0.0365372 13.292 1.22791C13.1302 1.35729 12.8553 1.5298 12.6828 1.61605C12.4079 1.74543 12.3486 1.75621 12.2246 1.69691C11.8472 1.5298 11.4806 1.29799 11.2165 1.0554C11.0332 0.882898 10.451 0.478586 10.3917 0.478586C10.3593 0.478586 10.327 0.457022 10.3162 0.435459C10.2893 0.365377 9.72323 0.112009 9.45908 0.0527096C9.11407 -0.0281525 8.82835 -0.0173702 8.51568 0.0958366ZM16.203 9.92332C16.5318 10.0904 16.6882 10.3384 16.6882 10.6942C16.6882 10.8937 16.6558 11.0284 16.5642 11.1578C16.4456 11.3411 11.9119 14.7912 11.5831 14.953C11.3567 15.0608 11.0655 15.0554 10.823 14.9314C10.5319 14.7751 8.24614 12.4678 8.14372 12.2198C8.10059 12.1066 8.06285 11.9395 8.06285 11.8425C8.06824 11.4381 8.51029 10.9961 8.9146 10.9907C9.26501 10.9907 9.47525 11.1416 10.4079 12.0689L11.3243 12.9799L13.292 11.4921C14.3755 10.6726 15.3566 9.96106 15.4752 9.90715C15.761 9.77777 15.9173 9.77777 16.203 9.92332Z" fill="#F6D32A"/>
<path d="M15.5184 9.91235C15.4537 9.93931 14.4833 10.6509 13.3566 11.4919L11.3135 13.0283L10.4025 12.1172C9.90112 11.6159 9.41595 11.1684 9.3243 11.1253C8.82296 10.8881 8.21918 11.1792 8.13832 11.7021C8.05746 12.1711 8.0952 12.225 9.34587 13.4919C9.99277 14.1388 10.6127 14.7371 10.7259 14.8234C10.9901 15.0175 11.389 15.039 11.6585 14.8719C12.0359 14.6455 16.3539 11.3679 16.4833 11.2115C16.6936 10.9636 16.7259 10.6671 16.5696 10.3598C16.5049 10.2196 16.3809 10.0579 16.3 10.004C16.1383 9.8854 15.7017 9.83149 15.5184 9.91235Z" fill="black"/>
</svg>
