<svg width="293" height="384" viewBox="0 0 293 384" fill="none" xmlns="http://www.w3.org/2000/svg">
<g filter="url(#filter0_b_130_2604)">
<rect x="0.640686" y="-9.15527e-05" width="292.078" height="383.352" rx="21.9058" fill="#9AD658" fill-opacity="0.1"/>
<rect x="1.30802" y="0.667245" width="290.743" height="382.018" rx="21.2385" stroke="url(#paint0_linear_130_2604)" stroke-opacity="0.66" stroke-width="1.33467"/>
</g>
<path d="M59.3749 208.616V217.794H56.8233V212.73L55.0919 217.794H52.9569L51.2125 212.691V217.794H48.6609V208.616H51.7462L54.0505 214.578L56.3026 208.616H59.3749ZM62.1161 209.814C61.6648 209.814 61.3003 209.692 61.0226 209.449C60.7535 209.198 60.619 208.885 60.619 208.512C60.619 208.13 60.7535 207.813 61.0226 207.562C61.3003 207.31 61.6648 207.184 62.1161 207.184C62.5587 207.184 62.9146 207.31 63.1836 207.562C63.4613 207.813 63.6002 208.13 63.6002 208.512C63.6002 208.885 63.4613 209.198 63.1836 209.449C62.9146 209.692 62.5587 209.814 62.1161 209.814ZM63.3789 210.491V217.794H60.8273V210.491H63.3789ZM67.3835 208.16V217.794H64.8319V208.16H67.3835ZM71.3881 208.16V217.794H68.8365V208.16H71.3881ZM74.1299 209.814C73.6786 209.814 73.3141 209.692 73.0364 209.449C72.7674 209.198 72.6328 208.885 72.6328 208.512C72.6328 208.13 72.7674 207.813 73.0364 207.562C73.3141 207.31 73.6786 207.184 74.1299 207.184C74.5725 207.184 74.9284 207.31 75.1974 207.562C75.4751 207.813 75.614 208.13 75.614 208.512C75.614 208.885 75.4751 209.198 75.1974 209.449C74.9284 209.692 74.5725 209.814 74.1299 209.814ZM75.3927 210.491V217.794H72.8411V210.491H75.3927ZM80.2435 217.885C79.5145 217.885 78.8592 217.733 78.2777 217.429C77.7049 217.126 77.2536 216.692 76.9238 216.128C76.5941 215.563 76.4292 214.899 76.4292 214.136C76.4292 213.381 76.5941 212.721 76.9238 212.157C77.2623 211.593 77.718 211.159 78.2907 210.855C78.8722 210.551 79.5275 210.4 80.2565 210.4C80.9855 210.4 81.6364 210.551 82.2092 210.855C82.7907 211.159 83.2463 211.593 83.5761 212.157C83.9146 212.721 84.0838 213.381 84.0838 214.136C84.0838 214.891 83.9146 215.555 83.5761 216.128C83.2463 216.692 82.7907 217.126 82.2092 217.429C81.6277 217.733 80.9725 217.885 80.2435 217.885ZM80.2435 215.672C80.5993 215.672 80.8944 215.542 81.1287 215.281C81.3717 215.012 81.4932 214.63 81.4932 214.136C81.4932 213.641 81.3717 213.264 81.1287 213.003C80.8944 212.743 80.6036 212.613 80.2565 212.613C79.9093 212.613 79.6186 212.743 79.3843 213.003C79.1499 213.264 79.0328 213.641 79.0328 214.136C79.0328 214.639 79.1456 215.021 79.3713 215.281C79.5969 215.542 79.8876 215.672 80.2435 215.672ZM89.8996 210.426C90.7414 210.426 91.4097 210.708 91.9044 211.272C92.3991 211.827 92.6464 212.582 92.6464 213.537V217.794H90.0949V213.875C90.0949 213.459 89.9864 213.133 89.7694 212.899C89.5524 212.656 89.2617 212.534 88.8972 212.534C88.5153 212.534 88.2159 212.656 87.9989 212.899C87.782 213.133 87.6735 213.459 87.6735 213.875V217.794H85.1219V210.491H87.6735V211.532C87.8991 211.202 88.2029 210.938 88.5847 210.738C88.9666 210.53 89.4049 210.426 89.8996 210.426ZM97.1578 217.885C96.4982 217.885 95.9081 217.776 95.3873 217.559C94.8753 217.334 94.4674 217.03 94.1636 216.648C93.8686 216.258 93.7037 215.819 93.6689 215.333H96.1424C96.1771 215.568 96.2856 215.75 96.4678 215.88C96.6501 216.01 96.8757 216.075 97.1448 216.075C97.3531 216.075 97.518 216.032 97.6395 215.945C97.761 215.858 97.8217 215.746 97.8217 215.607C97.8217 215.425 97.7219 215.29 97.5223 215.203C97.3227 215.116 96.9929 215.021 96.5329 214.917C96.0122 214.813 95.5783 214.696 95.2311 214.565C94.884 214.435 94.5802 214.223 94.3199 213.927C94.0682 213.632 93.9423 213.233 93.9423 212.73C93.9423 212.296 94.0595 211.905 94.2938 211.558C94.5281 211.202 94.871 210.92 95.3223 210.712C95.7822 210.504 96.3333 210.4 96.9756 210.4C97.9302 210.4 98.6809 210.634 99.2277 211.102C99.7745 211.571 100.091 212.187 100.178 212.951H97.8738C97.8304 212.717 97.7263 212.539 97.5614 212.417C97.4052 212.287 97.1925 212.222 96.9235 212.222C96.7152 212.222 96.5546 212.261 96.4418 212.339C96.3377 212.417 96.2856 212.526 96.2856 212.665C96.2856 212.838 96.3854 212.973 96.585 213.068C96.7846 213.155 97.1057 213.246 97.5484 213.342C98.0778 213.454 98.516 213.58 98.8632 213.719C99.219 213.858 99.5271 214.084 99.7875 214.396C100.057 214.7 100.191 215.116 100.191 215.646C100.191 216.071 100.065 216.453 99.8135 216.791C99.5705 217.13 99.219 217.399 98.759 217.599C98.3077 217.789 97.774 217.885 97.1578 217.885ZM107.335 217.885C106.606 217.885 105.951 217.733 105.369 217.429C104.796 217.126 104.345 216.692 104.015 216.128C103.686 215.563 103.521 214.899 103.521 214.136C103.521 213.381 103.686 212.721 104.015 212.157C104.354 211.593 104.809 211.159 105.382 210.855C105.964 210.551 106.619 210.4 107.348 210.4C108.077 210.4 108.728 210.551 109.301 210.855C109.882 211.159 110.338 211.593 110.668 212.157C111.006 212.721 111.175 213.381 111.175 214.136C111.175 214.891 111.006 215.555 110.668 216.128C110.338 216.692 109.882 217.126 109.301 217.429C108.719 217.733 108.064 217.885 107.335 217.885ZM107.335 215.672C107.691 215.672 107.986 215.542 108.22 215.281C108.463 215.012 108.585 214.63 108.585 214.136C108.585 213.641 108.463 213.264 108.22 213.003C107.986 212.743 107.695 212.613 107.348 212.613C107.001 212.613 106.71 212.743 106.476 213.003C106.241 213.264 106.124 213.641 106.124 214.136C106.124 214.639 106.237 215.021 106.463 215.281C106.688 215.542 106.979 215.672 107.335 215.672ZM116.158 212.613H115.012V217.794H112.448V212.613H111.654V210.491H112.448V210.426C112.448 209.488 112.721 208.772 113.268 208.278C113.823 207.774 114.617 207.523 115.65 207.523C115.858 207.523 116.019 207.527 116.132 207.536V209.71C116.062 209.701 115.967 209.697 115.845 209.697C115.568 209.697 115.364 209.762 115.234 209.892C115.103 210.013 115.03 210.213 115.012 210.491H116.158V212.613ZM126.813 211.675C126.813 212.231 126.682 212.738 126.422 213.198C126.17 213.65 125.784 214.014 125.263 214.292C124.751 214.561 124.122 214.696 123.376 214.696H122.113V217.794H119.562V208.616H123.376C124.114 208.616 124.738 208.746 125.25 209.007C125.771 209.267 126.162 209.627 126.422 210.087C126.682 210.547 126.813 211.076 126.813 211.675ZM123.129 212.665C123.849 212.665 124.209 212.335 124.209 211.675C124.209 211.007 123.849 210.673 123.129 210.673H122.113V212.665H123.129ZM130.389 208.16V217.794H127.838V208.16H130.389ZM131.426 214.136C131.426 213.381 131.56 212.721 131.829 212.157C132.107 211.593 132.48 211.159 132.949 210.855C133.426 210.551 133.956 210.4 134.537 210.4C135.04 210.4 135.474 210.499 135.839 210.699C136.203 210.899 136.485 211.168 136.685 211.506V210.491H139.237V217.794H136.685V216.778C136.485 217.117 136.199 217.386 135.826 217.586C135.461 217.785 135.032 217.885 134.537 217.885C133.956 217.885 133.426 217.733 132.949 217.429C132.48 217.126 132.107 216.692 131.829 216.128C131.56 215.555 131.426 214.891 131.426 214.136ZM136.685 214.136C136.685 213.667 136.555 213.298 136.295 213.029C136.043 212.76 135.73 212.626 135.357 212.626C134.975 212.626 134.659 212.76 134.407 213.029C134.155 213.29 134.029 213.658 134.029 214.136C134.029 214.604 134.155 214.978 134.407 215.255C134.659 215.524 134.975 215.659 135.357 215.659C135.73 215.659 136.043 215.524 136.295 215.255C136.555 214.986 136.685 214.613 136.685 214.136ZM148.554 210.491L143.919 221.27H141.146L142.891 217.481L139.896 210.491H142.734L144.271 214.63L145.755 210.491H148.554ZM156.199 214.058C156.199 214.257 156.186 214.457 156.16 214.656H151.33C151.356 215.056 151.464 215.355 151.655 215.555C151.855 215.746 152.107 215.841 152.41 215.841C152.836 215.841 153.139 215.65 153.322 215.268H156.043C155.93 215.772 155.708 216.223 155.379 216.622C155.058 217.013 154.65 217.321 154.155 217.546C153.66 217.772 153.113 217.885 152.515 217.885C151.794 217.885 151.152 217.733 150.588 217.429C150.033 217.126 149.594 216.692 149.273 216.128C148.961 215.563 148.804 214.899 148.804 214.136C148.804 213.372 148.961 212.712 149.273 212.157C149.586 211.593 150.019 211.159 150.575 210.855C151.139 210.551 151.786 210.4 152.515 210.4C153.235 210.4 153.873 210.547 154.428 210.842C154.984 211.137 155.418 211.562 155.73 212.118C156.043 212.665 156.199 213.311 156.199 214.058ZM153.595 213.42C153.595 213.107 153.491 212.864 153.283 212.691C153.074 212.508 152.814 212.417 152.502 212.417C152.189 212.417 151.933 212.504 151.734 212.678C151.534 212.843 151.404 213.09 151.343 213.42H153.595ZM159.795 211.779C160.081 211.363 160.428 211.033 160.836 210.79C161.244 210.547 161.682 210.426 162.151 210.426V213.146H161.435C160.879 213.146 160.467 213.255 160.198 213.472C159.929 213.689 159.795 214.066 159.795 214.604V217.794H157.243V210.491H159.795V211.779ZM166.177 217.885C165.517 217.885 164.927 217.776 164.406 217.559C163.894 217.334 163.486 217.03 163.183 216.648C162.888 216.258 162.723 215.819 162.688 215.333H165.161C165.196 215.568 165.305 215.75 165.487 215.88C165.669 216.01 165.895 216.075 166.164 216.075C166.372 216.075 166.537 216.032 166.659 215.945C166.78 215.858 166.841 215.746 166.841 215.607C166.841 215.425 166.741 215.29 166.541 215.203C166.342 215.116 166.012 215.021 165.552 214.917C165.031 214.813 164.597 214.696 164.25 214.565C163.903 214.435 163.599 214.223 163.339 213.927C163.087 213.632 162.961 213.233 162.961 212.73C162.961 212.296 163.079 211.905 163.313 211.558C163.547 211.202 163.89 210.92 164.341 210.712C164.801 210.504 165.352 210.4 165.995 210.4C166.949 210.4 167.7 210.634 168.247 211.102C168.794 211.571 169.11 212.187 169.197 212.951H166.893C166.849 212.717 166.745 212.539 166.58 212.417C166.424 212.287 166.212 212.222 165.943 212.222C165.734 212.222 165.574 212.261 165.461 212.339C165.357 212.417 165.305 212.526 165.305 212.665C165.305 212.838 165.404 212.973 165.604 213.068C165.804 213.155 166.125 213.246 166.567 213.342C167.097 213.454 167.535 213.58 167.882 213.719C168.238 213.858 168.546 214.084 168.807 214.396C169.076 214.7 169.21 215.116 169.21 215.646C169.21 216.071 169.084 216.453 168.833 216.791C168.59 217.13 168.238 217.399 167.778 217.599C167.327 217.789 166.793 217.885 166.177 217.885Z" fill="white"/>
<path d="M57.6593 249.897C57.2166 249.897 56.8391 249.745 56.5267 249.442C56.2229 249.129 56.071 248.752 56.071 248.309C56.071 247.858 56.2229 247.48 56.5267 247.176C56.8391 246.864 57.2166 246.708 57.6593 246.708C58.1105 246.708 58.4924 246.864 58.8048 247.176C59.1173 247.48 59.2735 247.858 59.2735 248.309C59.2735 248.752 59.1173 249.129 58.8048 249.442C58.4924 249.745 58.1105 249.897 57.6593 249.897ZM71.316 252.735C70.7172 252.735 70.1791 252.631 69.7017 252.423C69.2331 252.206 68.8642 251.911 68.5952 251.538C68.3262 251.156 68.1873 250.717 68.1786 250.223H69.4414C69.4848 250.648 69.6584 251.008 69.9621 251.303C70.2745 251.59 70.7258 251.733 71.316 251.733C71.8801 251.733 72.3227 251.594 72.6438 251.316C72.9736 251.03 73.1385 250.665 73.1385 250.223C73.1385 249.876 73.0431 249.593 72.8521 249.376C72.6612 249.16 72.4225 248.995 72.1361 248.882C71.8497 248.769 71.4635 248.647 70.9775 248.517C70.3787 248.361 69.897 248.205 69.5325 248.049C69.1767 247.892 68.8686 247.649 68.6082 247.32C68.3565 246.981 68.2307 246.53 68.2307 245.966C68.2307 245.471 68.3565 245.033 68.6082 244.651C68.8599 244.269 69.2114 243.974 69.6627 243.766C70.1227 243.557 70.6477 243.453 71.2379 243.453C72.0884 243.453 72.7827 243.666 73.3208 244.091C73.8676 244.516 74.1757 245.08 74.2451 245.783H72.9433C72.8999 245.436 72.7176 245.133 72.3965 244.872C72.0754 244.603 71.6501 244.469 71.1207 244.469C70.626 244.469 70.2225 244.599 69.91 244.859C69.5976 245.111 69.4414 245.467 69.4414 245.927C69.4414 246.256 69.5325 246.526 69.7148 246.734C69.9057 246.942 70.1357 247.103 70.4047 247.215C70.6824 247.32 71.0687 247.441 71.5633 247.58C72.1622 247.745 72.6438 247.91 73.0084 248.075C73.3729 248.231 73.6853 248.478 73.9457 248.817C74.206 249.147 74.3362 249.598 74.3362 250.171C74.3362 250.613 74.219 251.03 73.9847 251.42C73.7504 251.811 73.4032 252.128 72.9433 252.371C72.4833 252.614 71.9409 252.735 71.316 252.735ZM82.5886 248.804C82.5886 249.029 82.5756 249.268 82.5495 249.52H76.8476C76.891 250.223 77.1297 250.774 77.5636 251.173C78.0062 251.564 78.54 251.759 79.1648 251.759C79.6769 251.759 80.1021 251.642 80.4406 251.407C80.7878 251.164 81.0308 250.843 81.1696 250.444H82.4454C82.2545 251.13 81.8726 251.689 81.2998 252.123C80.727 252.549 80.0153 252.761 79.1648 252.761C78.4879 252.761 77.8804 252.609 77.3423 252.306C76.8129 252.002 76.3963 251.572 76.0925 251.017C75.7888 250.453 75.6369 249.802 75.6369 249.064C75.6369 248.326 75.7844 247.68 76.0795 247.124C76.3746 246.569 76.7868 246.144 77.3162 245.849C77.8543 245.545 78.4705 245.393 79.1648 245.393C79.8418 245.393 80.4406 245.54 80.9613 245.836C81.4821 246.131 81.8813 246.539 82.159 247.059C82.4454 247.571 82.5886 248.153 82.5886 248.804ZM81.3649 248.556C81.3649 248.105 81.2651 247.719 81.0655 247.398C80.8659 247.068 80.5925 246.821 80.2453 246.656C79.9069 246.482 79.5293 246.395 79.1127 246.395C78.5139 246.395 78.0019 246.586 77.5766 246.968C77.16 247.35 76.9214 247.879 76.8606 248.556H81.3649ZM83.7097 249.064C83.7097 248.326 83.8572 247.684 84.1523 247.137C84.4474 246.582 84.8553 246.152 85.376 245.849C85.9054 245.545 86.5086 245.393 87.1855 245.393C88.0621 245.393 88.7824 245.606 89.3465 246.031C89.9193 246.456 90.2969 247.046 90.4791 247.801H89.2033C89.0818 247.367 88.8432 247.025 88.4873 246.773C88.1402 246.521 87.7063 246.395 87.1855 246.395C86.5086 246.395 85.9618 246.63 85.5452 247.098C85.1287 247.558 84.9204 248.214 84.9204 249.064C84.9204 249.923 85.1287 250.587 85.5452 251.056C85.9618 251.524 86.5086 251.759 87.1855 251.759C87.7063 251.759 88.1402 251.637 88.4873 251.394C88.8345 251.151 89.0732 250.804 89.2033 250.353H90.4791C90.2882 251.082 89.9063 251.668 89.3335 252.11C88.7607 252.544 88.0447 252.761 87.1855 252.761C86.5086 252.761 85.9054 252.609 85.376 252.306C84.8553 252.002 84.4474 251.572 84.1523 251.017C83.8572 250.461 83.7097 249.81 83.7097 249.064ZM98.3866 245.51V252.644H97.202V251.59C96.9763 251.954 96.6595 252.24 96.2516 252.449C95.8524 252.648 95.4098 252.748 94.9238 252.748C94.3684 252.748 93.8693 252.635 93.4267 252.41C92.9841 252.175 92.6326 251.828 92.3722 251.368C92.1206 250.908 91.9947 250.349 91.9947 249.689V245.51H93.1663V249.533C93.1663 250.236 93.3443 250.778 93.7001 251.16C94.0559 251.533 94.5419 251.72 95.1581 251.72C95.7917 251.72 96.2907 251.524 96.6552 251.134C97.0197 250.743 97.202 250.175 97.202 249.429V245.51H98.3866ZM101.571 246.669C101.78 246.261 102.075 245.944 102.457 245.718C102.847 245.493 103.32 245.38 103.876 245.38V246.604H103.563C102.235 246.604 101.571 247.324 101.571 248.765V252.644H100.387V245.51H101.571V246.669ZM111.752 248.804C111.752 249.029 111.739 249.268 111.713 249.52H106.011C106.055 250.223 106.293 250.774 106.727 251.173C107.17 251.564 107.704 251.759 108.329 251.759C108.841 251.759 109.266 251.642 109.604 251.407C109.951 251.164 110.194 250.843 110.333 250.444H111.609C111.418 251.13 111.036 251.689 110.463 252.123C109.891 252.549 109.179 252.761 108.329 252.761C107.652 252.761 107.044 252.609 106.506 252.306C105.977 252.002 105.56 251.572 105.256 251.017C104.952 250.453 104.801 249.802 104.801 249.064C104.801 248.326 104.948 247.68 105.243 247.124C105.538 246.569 105.951 246.144 106.48 245.849C107.018 245.545 107.634 245.393 108.329 245.393C109.005 245.393 109.604 245.54 110.125 245.836C110.646 246.131 111.045 246.539 111.323 247.059C111.609 247.571 111.752 248.153 111.752 248.804ZM110.529 248.556C110.529 248.105 110.429 247.719 110.229 247.398C110.03 247.068 109.756 246.821 109.409 246.656C109.071 246.482 108.693 246.395 108.276 246.395C107.678 246.395 107.166 246.586 106.74 246.968C106.324 247.35 106.085 247.879 106.024 248.556H110.529ZM112.873 249.051C112.873 248.322 113.021 247.684 113.316 247.137C113.611 246.582 114.015 246.152 114.527 245.849C115.047 245.545 115.629 245.393 116.271 245.393C116.827 245.393 117.343 245.523 117.82 245.783C118.298 246.035 118.662 246.369 118.914 246.786V243.011H120.111V252.644H118.914V251.303C118.679 251.728 118.332 252.08 117.872 252.358C117.412 252.627 116.874 252.761 116.258 252.761C115.625 252.761 115.047 252.605 114.527 252.293C114.015 251.98 113.611 251.542 113.316 250.978C113.021 250.414 112.873 249.771 112.873 249.051ZM118.914 249.064C118.914 248.526 118.805 248.057 118.588 247.658C118.371 247.259 118.076 246.955 117.703 246.747C117.339 246.53 116.935 246.421 116.492 246.421C116.05 246.421 115.646 246.526 115.282 246.734C114.917 246.942 114.626 247.246 114.41 247.645C114.193 248.044 114.084 248.513 114.084 249.051C114.084 249.598 114.193 250.075 114.41 250.483C114.626 250.882 114.917 251.19 115.282 251.407C115.646 251.616 116.05 251.72 116.492 251.72C116.935 251.72 117.339 251.616 117.703 251.407C118.076 251.19 118.371 250.882 118.588 250.483C118.805 250.075 118.914 249.602 118.914 249.064ZM126.769 246.825C127.003 246.417 127.35 246.079 127.81 245.81C128.279 245.532 128.821 245.393 129.437 245.393C130.071 245.393 130.644 245.545 131.156 245.849C131.677 246.152 132.084 246.582 132.38 247.137C132.675 247.684 132.822 248.322 132.822 249.051C132.822 249.771 132.675 250.414 132.38 250.978C132.084 251.542 131.677 251.98 131.156 252.293C130.644 252.605 130.071 252.761 129.437 252.761C128.83 252.761 128.292 252.627 127.823 252.358C127.363 252.08 127.012 251.737 126.769 251.329V256.029H125.584V245.51H126.769V246.825ZM131.611 249.051C131.611 248.513 131.503 248.044 131.286 247.645C131.069 247.246 130.774 246.942 130.401 246.734C130.036 246.526 129.633 246.421 129.19 246.421C128.756 246.421 128.353 246.53 127.979 246.747C127.615 246.955 127.32 247.263 127.094 247.671C126.877 248.07 126.769 248.535 126.769 249.064C126.769 249.602 126.877 250.075 127.094 250.483C127.32 250.882 127.615 251.19 127.979 251.407C128.353 251.616 128.756 251.72 129.19 251.72C129.633 251.72 130.036 251.616 130.401 251.407C130.774 251.19 131.069 250.882 131.286 250.483C131.503 250.075 131.611 249.598 131.611 249.051ZM133.939 249.051C133.939 248.322 134.086 247.684 134.381 247.137C134.677 246.582 135.08 246.152 135.592 245.849C136.113 245.545 136.69 245.393 137.324 245.393C137.948 245.393 138.491 245.527 138.951 245.796C139.411 246.066 139.754 246.404 139.979 246.812V245.51H141.177V252.644H139.979V251.316C139.745 251.733 139.393 252.08 138.925 252.358C138.465 252.627 137.927 252.761 137.311 252.761C136.677 252.761 136.104 252.605 135.592 252.293C135.08 251.98 134.677 251.542 134.381 250.978C134.086 250.414 133.939 249.771 133.939 249.051ZM139.979 249.064C139.979 248.526 139.871 248.057 139.654 247.658C139.437 247.259 139.142 246.955 138.769 246.747C138.404 246.53 138.001 246.421 137.558 246.421C137.115 246.421 136.712 246.526 136.347 246.734C135.983 246.942 135.692 247.246 135.475 247.645C135.258 248.044 135.15 248.513 135.15 249.051C135.15 249.598 135.258 250.075 135.475 250.483C135.692 250.882 135.983 251.19 136.347 251.407C136.712 251.616 137.115 251.72 137.558 251.72C138.001 251.72 138.404 251.616 138.769 251.407C139.142 251.19 139.437 250.882 139.654 250.483C139.871 250.075 139.979 249.602 139.979 249.064ZM149.323 245.51L145.027 256.003H143.804L145.21 252.566L142.333 245.51H143.648L145.887 251.29L148.1 245.51H149.323ZM159.093 245.38C159.649 245.38 160.143 245.497 160.577 245.731C161.011 245.957 161.354 246.3 161.606 246.76C161.857 247.22 161.983 247.78 161.983 248.439V252.644H160.812V248.608C160.812 247.897 160.634 247.354 160.278 246.981C159.931 246.599 159.458 246.408 158.859 246.408C158.243 246.408 157.752 246.608 157.388 247.007C157.023 247.398 156.841 247.966 156.841 248.713V252.644H155.67V248.608C155.67 247.897 155.492 247.354 155.136 246.981C154.789 246.599 154.316 246.408 153.717 246.408C153.101 246.408 152.61 246.608 152.246 247.007C151.881 247.398 151.699 247.966 151.699 248.713V252.644H150.514V245.51H151.699V246.539C151.933 246.165 152.246 245.879 152.636 245.679C153.036 245.48 153.474 245.38 153.951 245.38C154.55 245.38 155.079 245.514 155.539 245.783C155.999 246.053 156.342 246.447 156.568 246.968C156.767 246.465 157.097 246.074 157.557 245.796C158.017 245.519 158.529 245.38 159.093 245.38ZM170.436 248.804C170.436 249.029 170.423 249.268 170.397 249.52H164.695C164.738 250.223 164.977 250.774 165.411 251.173C165.853 251.564 166.387 251.759 167.012 251.759C167.524 251.759 167.949 251.642 168.288 251.407C168.635 251.164 168.878 250.843 169.017 250.444H170.292C170.102 251.13 169.72 251.689 169.147 252.123C168.574 252.549 167.862 252.761 167.012 252.761C166.335 252.761 165.727 252.609 165.189 252.306C164.66 252.002 164.243 251.572 163.94 251.017C163.636 250.453 163.484 249.802 163.484 249.064C163.484 248.326 163.632 247.68 163.927 247.124C164.222 246.569 164.634 246.144 165.163 245.849C165.701 245.545 166.318 245.393 167.012 245.393C167.689 245.393 168.288 245.54 168.808 245.836C169.329 246.131 169.728 246.539 170.006 247.059C170.292 247.571 170.436 248.153 170.436 248.804ZM169.212 248.556C169.212 248.105 169.112 247.719 168.913 247.398C168.713 247.068 168.44 246.821 168.092 246.656C167.754 246.482 167.376 246.395 166.96 246.395C166.361 246.395 165.849 246.586 165.424 246.968C165.007 247.35 164.768 247.879 164.708 248.556H169.212ZM175.475 245.38C176.343 245.38 177.046 245.645 177.584 246.174C178.122 246.695 178.391 247.45 178.391 248.439V252.644H177.22V248.608C177.22 247.897 177.042 247.354 176.686 246.981C176.33 246.599 175.844 246.408 175.228 246.408C174.603 246.408 174.104 246.604 173.731 246.994C173.366 247.385 173.184 247.953 173.184 248.7V252.644H171.999V245.51H173.184V246.526C173.418 246.161 173.735 245.879 174.134 245.679C174.542 245.48 174.989 245.38 175.475 245.38ZM181.771 246.486V250.691C181.771 251.038 181.845 251.286 181.993 251.433C182.14 251.572 182.396 251.642 182.761 251.642H183.633V252.644H182.566C181.906 252.644 181.411 252.492 181.081 252.188C180.752 251.885 180.587 251.386 180.587 250.691V246.486H179.662V245.51H180.587V243.714H181.771V245.51H183.633V246.486H181.771ZM191.481 245.393C192.097 245.393 192.635 245.527 193.095 245.796C193.564 246.066 193.911 246.404 194.137 246.812V245.51H195.334V252.8C195.334 253.451 195.196 254.028 194.918 254.532C194.64 255.044 194.241 255.443 193.72 255.729C193.208 256.016 192.609 256.159 191.924 256.159C190.986 256.159 190.205 255.938 189.58 255.495C188.956 255.052 188.587 254.449 188.474 253.685H189.646C189.776 254.119 190.045 254.467 190.453 254.727C190.861 254.996 191.351 255.131 191.924 255.131C192.575 255.131 193.104 254.927 193.512 254.519C193.929 254.111 194.137 253.538 194.137 252.8V251.303C193.902 251.72 193.555 252.067 193.095 252.345C192.635 252.622 192.097 252.761 191.481 252.761C190.848 252.761 190.27 252.605 189.75 252.293C189.238 251.98 188.834 251.542 188.539 250.978C188.244 250.414 188.096 249.771 188.096 249.051C188.096 248.322 188.244 247.684 188.539 247.137C188.834 246.582 189.238 246.152 189.75 245.849C190.27 245.545 190.848 245.393 191.481 245.393ZM194.137 249.064C194.137 248.526 194.028 248.057 193.811 247.658C193.594 247.259 193.299 246.955 192.926 246.747C192.562 246.53 192.158 246.421 191.715 246.421C191.273 246.421 190.869 246.526 190.505 246.734C190.14 246.942 189.85 247.246 189.633 247.645C189.416 248.044 189.307 248.513 189.307 249.051C189.307 249.598 189.416 250.075 189.633 250.483C189.85 250.882 190.14 251.19 190.505 251.407C190.869 251.616 191.273 251.72 191.715 251.72C192.158 251.72 192.562 251.616 192.926 251.407C193.299 251.19 193.594 250.882 193.811 250.483C194.028 250.075 194.137 249.602 194.137 249.064ZM196.894 249.051C196.894 248.322 197.041 247.684 197.336 247.137C197.632 246.582 198.035 246.152 198.547 245.849C199.068 245.545 199.645 245.393 200.279 245.393C200.903 245.393 201.446 245.527 201.906 245.796C202.366 246.066 202.709 246.404 202.934 246.812V245.51H204.132V252.644H202.934V251.316C202.7 251.733 202.348 252.08 201.88 252.358C201.42 252.627 200.882 252.761 200.266 252.761C199.632 252.761 199.059 252.605 198.547 252.293C198.035 251.98 197.632 251.542 197.336 250.978C197.041 250.414 196.894 249.771 196.894 249.051ZM202.934 249.064C202.934 248.526 202.826 248.057 202.609 247.658C202.392 247.259 202.097 246.955 201.724 246.747C201.359 246.53 200.955 246.421 200.513 246.421C200.07 246.421 199.667 246.526 199.302 246.734C198.938 246.942 198.647 247.246 198.43 247.645C198.213 248.044 198.105 248.513 198.105 249.051C198.105 249.598 198.213 250.075 198.43 250.483C198.647 250.882 198.938 251.19 199.302 251.407C199.667 251.616 200.07 251.72 200.513 251.72C200.955 251.72 201.359 251.616 201.724 251.407C202.097 251.19 202.392 250.882 202.609 250.483C202.826 250.075 202.934 249.602 202.934 249.064ZM207.579 246.486V250.691C207.579 251.038 207.653 251.286 207.8 251.433C207.948 251.572 208.204 251.642 208.568 251.642H209.44V252.644H208.373C207.713 252.644 207.219 252.492 206.889 252.188C206.559 251.885 206.394 251.386 206.394 250.691V246.486H205.47V245.51H206.394V243.714H207.579V245.51H209.44V246.486H207.579ZM217.385 248.804C217.385 249.029 217.372 249.268 217.346 249.52H211.644C211.687 250.223 211.926 250.774 212.36 251.173C212.802 251.564 213.336 251.759 213.961 251.759C214.473 251.759 214.898 251.642 215.237 251.407C215.584 251.164 215.827 250.843 215.966 250.444H217.242C217.051 251.13 216.669 251.689 216.096 252.123C215.523 252.549 214.812 252.761 213.961 252.761C213.284 252.761 212.677 252.609 212.139 252.306C211.609 252.002 211.193 251.572 210.889 251.017C210.585 250.453 210.433 249.802 210.433 249.064C210.433 248.326 210.581 247.68 210.876 247.124C211.171 246.569 211.583 246.144 212.113 245.849C212.651 245.545 213.267 245.393 213.961 245.393C214.638 245.393 215.237 245.54 215.758 245.836C216.278 246.131 216.678 246.539 216.955 247.059C217.242 247.571 217.385 248.153 217.385 248.804ZM216.161 248.556C216.161 248.105 216.061 247.719 215.862 247.398C215.662 247.068 215.389 246.821 215.042 246.656C214.703 246.482 214.326 246.395 213.909 246.395C213.31 246.395 212.798 246.586 212.373 246.968C211.956 247.35 211.718 247.879 211.657 248.556H216.161ZM228.452 245.51L226.226 252.644H225.002L223.284 246.981L221.565 252.644H220.342L218.102 245.51H219.313L220.953 251.498L222.724 245.51H223.935L225.666 251.511L227.28 245.51H228.452ZM229.185 249.051C229.185 248.322 229.332 247.684 229.628 247.137C229.923 246.582 230.326 246.152 230.838 245.849C231.359 245.545 231.936 245.393 232.57 245.393C233.195 245.393 233.737 245.527 234.197 245.796C234.657 246.066 235 246.404 235.225 246.812V245.51H236.423V252.644H235.225V251.316C234.991 251.733 234.64 252.08 234.171 252.358C233.711 252.627 233.173 252.761 232.557 252.761C231.923 252.761 231.35 252.605 230.838 252.293C230.326 251.98 229.923 251.542 229.628 250.978C229.332 250.414 229.185 249.771 229.185 249.051ZM235.225 249.064C235.225 248.526 235.117 248.057 234.9 247.658C234.683 247.259 234.388 246.955 234.015 246.747C233.65 246.53 233.247 246.421 232.804 246.421C232.361 246.421 231.958 246.526 231.593 246.734C231.229 246.942 230.938 247.246 230.721 247.645C230.504 248.044 230.396 248.513 230.396 249.051C230.396 249.598 230.504 250.075 230.721 250.483C230.938 250.882 231.229 251.19 231.593 251.407C231.958 251.616 232.361 251.72 232.804 251.72C233.247 251.72 233.65 251.616 234.015 251.407C234.388 251.19 234.683 250.882 234.9 250.483C235.117 250.075 235.225 249.602 235.225 249.064ZM244.57 245.51L240.274 256.003H239.05L240.456 252.566L237.579 245.51H238.894L241.133 251.29L243.346 245.51H244.57Z" fill="white"/>
<path d="M58.0006 284.747C57.558 284.747 57.1805 284.596 56.868 284.292C56.5643 283.979 56.4124 283.602 56.4124 283.159C56.4124 282.708 56.5643 282.33 56.868 282.027C57.1805 281.714 57.558 281.558 58.0006 281.558C58.4519 281.558 58.8338 281.714 59.1462 282.027C59.4586 282.33 59.6149 282.708 59.6149 283.159C59.6149 283.602 59.4586 283.979 59.1462 284.292C58.8338 284.596 58.4519 284.747 58.0006 284.747ZM77.9842 278.486V287.494H76.7995V280.777L73.8054 287.494H72.9722L69.965 280.764V287.494H68.7803V278.486H70.0561L73.3888 285.932L76.7214 278.486H77.9842ZM86.3201 280.36V287.494H85.1354V286.44C84.9098 286.804 84.593 287.091 84.1851 287.299C83.7859 287.499 83.3432 287.598 82.8572 287.598C82.3018 287.598 81.8028 287.486 81.3602 287.26C80.9175 287.026 80.566 286.678 80.3057 286.218C80.054 285.759 79.9282 285.199 79.9282 284.539V280.36H81.0998V284.383C81.0998 285.086 81.2777 285.628 81.6335 286.01C81.9894 286.383 82.4754 286.57 83.0916 286.57C83.7251 286.57 84.2241 286.375 84.5887 285.984C84.9532 285.594 85.1354 285.025 85.1354 284.279V280.36H86.3201ZM89.5049 277.861V287.494H88.3203V277.861H89.5049ZM92.969 281.337V285.542C92.969 285.889 93.0427 286.136 93.1903 286.284C93.3378 286.422 93.5939 286.492 93.9584 286.492H94.8306V287.494H93.7631C93.1035 287.494 92.6088 287.342 92.279 287.039C91.9492 286.735 91.7843 286.236 91.7843 285.542V281.337H90.86V280.36H91.7843V278.564H92.969V280.36H94.8306V281.337H92.969ZM96.8778 279.202C96.6521 279.202 96.4612 279.124 96.305 278.967C96.1488 278.811 96.0707 278.62 96.0707 278.395C96.0707 278.169 96.1488 277.978 96.305 277.822C96.4612 277.666 96.6521 277.587 96.8778 277.587C97.0948 277.587 97.277 277.666 97.4245 277.822C97.5808 277.978 97.6589 278.169 97.6589 278.395C97.6589 278.62 97.5808 278.811 97.4245 278.967C97.277 279.124 97.0948 279.202 96.8778 279.202ZM97.4506 280.36V287.494H96.2659V280.36H97.4506ZM104.417 282.222V283.224H99.2223V282.222H104.417ZM108.085 281.337V285.542C108.085 285.889 108.159 286.136 108.306 286.284C108.454 286.422 108.71 286.492 109.074 286.492H109.946V287.494H108.879C108.219 287.494 107.725 287.342 107.395 287.039C107.065 286.735 106.9 286.236 106.9 285.542V281.337H105.976V280.36H106.9V278.564H108.085V280.36H109.946V281.337H108.085ZM110.939 283.901C110.939 283.172 111.087 282.534 111.382 281.988C111.677 281.432 112.08 281.003 112.592 280.699C113.113 280.395 113.69 280.243 114.324 280.243C114.949 280.243 115.491 280.378 115.951 280.647C116.411 280.916 116.754 281.254 116.98 281.662V280.36H118.177V287.494H116.98V286.166C116.745 286.583 116.394 286.93 115.925 287.208C115.465 287.477 114.927 287.611 114.311 287.611C113.677 287.611 113.104 287.455 112.592 287.143C112.08 286.83 111.677 286.392 111.382 285.828C111.087 285.264 110.939 284.622 110.939 283.901ZM116.98 283.914C116.98 283.376 116.871 282.908 116.654 282.508C116.437 282.109 116.142 281.805 115.769 281.597C115.404 281.38 115.001 281.272 114.558 281.272C114.116 281.272 113.712 281.376 113.347 281.584C112.983 281.792 112.692 282.096 112.475 282.495C112.258 282.895 112.15 283.363 112.15 283.901C112.15 284.448 112.258 284.925 112.475 285.333C112.692 285.732 112.983 286.041 113.347 286.258C113.712 286.466 114.116 286.57 114.558 286.57C115.001 286.57 115.404 286.466 115.769 286.258C116.142 286.041 116.437 285.732 116.654 285.333C116.871 284.925 116.98 284.452 116.98 283.914ZM121.364 281.688C121.607 281.263 121.963 280.916 122.431 280.647C122.9 280.378 123.434 280.243 124.033 280.243C124.675 280.243 125.252 280.395 125.764 280.699C126.276 281.003 126.68 281.432 126.975 281.988C127.27 282.534 127.417 283.172 127.417 283.901C127.417 284.622 127.27 285.264 126.975 285.828C126.68 286.392 126.272 286.83 125.751 287.143C125.239 287.455 124.666 287.611 124.033 287.611C123.416 287.611 122.874 287.477 122.405 287.208C121.945 286.939 121.598 286.596 121.364 286.179V287.494H120.179V277.861H121.364V281.688ZM126.207 283.901C126.207 283.363 126.098 282.895 125.881 282.495C125.664 282.096 125.369 281.792 124.996 281.584C124.631 281.376 124.228 281.272 123.785 281.272C123.351 281.272 122.948 281.38 122.574 281.597C122.21 281.805 121.915 282.113 121.689 282.521C121.472 282.921 121.364 283.385 121.364 283.914C121.364 284.452 121.472 284.925 121.689 285.333C121.915 285.732 122.21 286.041 122.574 286.258C122.948 286.466 123.351 286.57 123.785 286.57C124.228 286.57 124.631 286.466 124.996 286.258C125.369 286.041 125.664 285.732 125.881 285.333C126.098 284.925 126.207 284.448 126.207 283.901ZM130.161 277.861V287.494H128.977V277.861H130.161ZM138.689 283.654C138.689 283.88 138.676 284.118 138.65 284.37H132.948C132.992 285.073 133.23 285.624 133.664 286.023C134.107 286.414 134.641 286.609 135.266 286.609C135.778 286.609 136.203 286.492 136.541 286.258C136.888 286.015 137.131 285.693 137.27 285.294H138.546C138.355 285.98 137.973 286.54 137.401 286.974C136.828 287.399 136.116 287.611 135.266 287.611C134.589 287.611 133.981 287.46 133.443 287.156C132.914 286.852 132.497 286.422 132.193 285.867C131.89 285.303 131.738 284.652 131.738 283.914C131.738 283.177 131.885 282.53 132.18 281.975C132.475 281.419 132.888 280.994 133.417 280.699C133.955 280.395 134.571 280.243 135.266 280.243C135.942 280.243 136.541 280.391 137.062 280.686C137.583 280.981 137.982 281.389 138.26 281.909C138.546 282.422 138.689 283.003 138.689 283.654ZM137.466 283.407C137.466 282.955 137.366 282.569 137.166 282.248C136.967 281.918 136.693 281.671 136.346 281.506C136.008 281.332 135.63 281.246 135.213 281.246C134.615 281.246 134.103 281.436 133.677 281.818C133.261 282.2 133.022 282.73 132.961 283.407H137.466ZM144.908 281.519C145.117 281.111 145.412 280.794 145.794 280.569C146.184 280.343 146.657 280.23 147.213 280.23V281.454H146.9C145.572 281.454 144.908 282.174 144.908 283.615V287.494H143.724V280.36H144.908V281.519ZM154.907 280.36V287.494H153.722V286.44C153.497 286.804 153.18 287.091 152.772 287.299C152.373 287.499 151.93 287.598 151.444 287.598C150.889 287.598 150.39 287.486 149.947 287.26C149.504 287.026 149.153 286.678 148.893 286.218C148.641 285.759 148.515 285.199 148.515 284.539V280.36H149.687V284.383C149.687 285.086 149.865 285.628 150.22 286.01C150.576 286.383 151.062 286.57 151.678 286.57C152.312 286.57 152.811 286.375 153.175 285.984C153.54 285.594 153.722 285.025 153.722 284.279V280.36H154.907ZM165.486 280.23C166.041 280.23 166.536 280.347 166.97 280.582C167.404 280.807 167.747 281.15 167.999 281.61C168.25 282.07 168.376 282.63 168.376 283.289V287.494H167.204V283.459C167.204 282.747 167.027 282.205 166.671 281.831C166.324 281.45 165.851 281.259 165.252 281.259C164.636 281.259 164.145 281.458 163.781 281.857C163.416 282.248 163.234 282.816 163.234 283.563V287.494H162.062V283.459C162.062 282.747 161.884 282.205 161.529 281.831C161.181 281.45 160.708 281.259 160.11 281.259C159.493 281.259 159.003 281.458 158.639 281.857C158.274 282.248 158.092 282.816 158.092 283.563V287.494H156.907V280.36H158.092V281.389C158.326 281.016 158.639 280.729 159.029 280.53C159.428 280.33 159.867 280.23 160.344 280.23C160.943 280.23 161.472 280.365 161.932 280.634C162.392 280.903 162.735 281.298 162.961 281.818C163.16 281.315 163.49 280.924 163.95 280.647C164.41 280.369 164.922 280.23 165.486 280.23ZM178.898 280.23C179.454 280.23 179.948 280.347 180.382 280.582C180.816 280.807 181.159 281.15 181.411 281.61C181.662 282.07 181.788 282.63 181.788 283.289V287.494H180.617V283.459C180.617 282.747 180.439 282.205 180.083 281.831C179.736 281.45 179.263 281.259 178.664 281.259C178.048 281.259 177.557 281.458 177.193 281.857C176.828 282.248 176.646 282.816 176.646 283.563V287.494H175.475V283.459C175.475 282.747 175.297 282.205 174.941 281.831C174.594 281.45 174.121 281.259 173.522 281.259C172.906 281.259 172.415 281.458 172.051 281.857C171.686 282.248 171.504 282.816 171.504 283.563V287.494H170.319V280.36H171.504V281.389C171.738 281.016 172.051 280.729 172.441 280.53C172.841 280.33 173.279 280.23 173.756 280.23C174.355 280.23 174.884 280.365 175.344 280.634C175.804 280.903 176.147 281.298 176.373 281.818C176.572 281.315 176.902 280.924 177.362 280.647C177.822 280.369 178.334 280.23 178.898 280.23ZM189.876 280.36L185.58 290.853H184.356L185.762 287.416L182.885 280.36H184.2L186.439 286.14L188.652 280.36H189.876ZM197.48 280.243C198.096 280.243 198.634 280.378 199.094 280.647C199.563 280.916 199.91 281.254 200.135 281.662V280.36H201.333V287.65C201.333 288.301 201.194 288.879 200.917 289.382C200.639 289.894 200.24 290.293 199.719 290.58C199.207 290.866 198.608 291.009 197.922 291.009C196.985 291.009 196.204 290.788 195.579 290.345C194.954 289.903 194.585 289.299 194.473 288.536H195.644C195.774 288.97 196.043 289.317 196.451 289.577C196.859 289.846 197.35 289.981 197.922 289.981C198.573 289.981 199.103 289.777 199.511 289.369C199.927 288.961 200.135 288.388 200.135 287.65V286.153C199.901 286.57 199.554 286.917 199.094 287.195C198.634 287.473 198.096 287.611 197.48 287.611C196.846 287.611 196.269 287.455 195.748 287.143C195.236 286.83 194.833 286.392 194.538 285.828C194.243 285.264 194.095 284.622 194.095 283.901C194.095 283.172 194.243 282.534 194.538 281.988C194.833 281.432 195.236 281.003 195.748 280.699C196.269 280.395 196.846 280.243 197.48 280.243ZM200.135 283.914C200.135 283.376 200.027 282.908 199.81 282.508C199.593 282.109 199.298 281.805 198.925 281.597C198.56 281.38 198.157 281.272 197.714 281.272C197.271 281.272 196.868 281.376 196.503 281.584C196.139 281.792 195.848 282.096 195.631 282.495C195.414 282.895 195.306 283.363 195.306 283.901C195.306 284.448 195.414 284.925 195.631 285.333C195.848 285.732 196.139 286.041 196.503 286.258C196.868 286.466 197.271 286.57 197.714 286.57C198.157 286.57 198.56 286.466 198.925 286.258C199.298 286.041 199.593 285.732 199.81 285.333C200.027 284.925 200.135 284.452 200.135 283.914ZM202.892 283.901C202.892 283.172 203.04 282.534 203.335 281.988C203.63 281.432 204.034 281.003 204.546 280.699C205.067 280.395 205.644 280.243 206.277 280.243C206.902 280.243 207.444 280.378 207.904 280.647C208.364 280.916 208.707 281.254 208.933 281.662V280.36H210.131V287.494H208.933V286.166C208.699 286.583 208.347 286.93 207.878 287.208C207.418 287.477 206.88 287.611 206.264 287.611C205.631 287.611 205.058 287.455 204.546 287.143C204.034 286.83 203.63 286.392 203.335 285.828C203.04 285.264 202.892 284.622 202.892 283.901ZM208.933 283.914C208.933 283.376 208.824 282.908 208.607 282.508C208.39 282.109 208.095 281.805 207.722 281.597C207.358 281.38 206.954 281.272 206.512 281.272C206.069 281.272 205.665 281.376 205.301 281.584C204.936 281.792 204.646 282.096 204.429 282.495C204.212 282.895 204.103 283.363 204.103 283.901C204.103 284.448 204.212 284.925 204.429 285.333C204.646 285.732 204.936 286.041 205.301 286.258C205.665 286.466 206.069 286.57 206.512 286.57C206.954 286.57 207.358 286.466 207.722 286.258C208.095 286.041 208.39 285.732 208.607 285.333C208.824 284.925 208.933 284.452 208.933 283.914ZM220.711 280.23C221.267 280.23 221.762 280.347 222.196 280.582C222.629 280.807 222.972 281.15 223.224 281.61C223.476 282.07 223.602 282.63 223.602 283.289V287.494H222.43V283.459C222.43 282.747 222.252 282.205 221.896 281.831C221.549 281.45 221.076 281.259 220.477 281.259C219.861 281.259 219.371 281.458 219.006 281.857C218.642 282.248 218.459 282.816 218.459 283.563V287.494H217.288V283.459C217.288 282.747 217.11 282.205 216.754 281.831C216.407 281.45 215.934 281.259 215.335 281.259C214.719 281.259 214.228 281.458 213.864 281.857C213.499 282.248 213.317 282.816 213.317 283.563V287.494H212.133V280.36H213.317V281.389C213.552 281.016 213.864 280.729 214.254 280.53C214.654 280.33 215.092 280.23 215.569 280.23C216.168 280.23 216.698 280.365 217.158 280.634C217.618 280.903 217.96 281.298 218.186 281.818C218.386 281.315 218.715 280.924 219.175 280.647C219.635 280.369 220.147 280.23 220.711 280.23ZM232.054 283.654C232.054 283.88 232.041 284.118 232.015 284.37H226.313C226.356 285.073 226.595 285.624 227.029 286.023C227.471 286.414 228.005 286.609 228.63 286.609C229.142 286.609 229.567 286.492 229.906 286.258C230.253 286.015 230.496 285.693 230.635 285.294H231.911C231.72 285.98 231.338 286.54 230.765 286.974C230.192 287.399 229.481 287.611 228.63 287.611C227.953 287.611 227.346 287.46 226.808 287.156C226.278 286.852 225.862 286.422 225.558 285.867C225.254 285.303 225.102 284.652 225.102 283.914C225.102 283.177 225.25 282.53 225.545 281.975C225.84 281.419 226.252 280.994 226.781 280.699C227.32 280.395 227.936 280.243 228.63 280.243C229.307 280.243 229.906 280.391 230.427 280.686C230.947 280.981 231.347 281.389 231.624 281.909C231.911 282.422 232.054 283.003 232.054 283.654ZM230.83 283.407C230.83 282.955 230.73 282.569 230.531 282.248C230.331 281.918 230.058 281.671 229.711 281.506C229.372 281.332 228.995 281.246 228.578 281.246C227.979 281.246 227.467 281.436 227.042 281.818C226.625 282.2 226.387 282.73 226.326 283.407H230.83ZM236.143 287.611C235.596 287.611 235.106 287.52 234.672 287.338C234.238 287.147 233.895 286.887 233.644 286.557C233.392 286.218 233.253 285.832 233.227 285.398H234.451C234.485 285.754 234.65 286.045 234.945 286.271C235.249 286.496 235.644 286.609 236.13 286.609C236.581 286.609 236.937 286.509 237.198 286.31C237.458 286.11 237.588 285.858 237.588 285.555C237.588 285.242 237.449 285.012 237.171 284.865C236.894 284.708 236.464 284.557 235.883 284.409C235.353 284.27 234.919 284.131 234.581 283.992C234.251 283.845 233.965 283.632 233.722 283.354C233.487 283.068 233.37 282.695 233.37 282.235C233.37 281.87 233.479 281.536 233.696 281.233C233.913 280.929 234.221 280.69 234.62 280.517C235.019 280.334 235.475 280.243 235.987 280.243C236.777 280.243 237.414 280.443 237.901 280.842C238.387 281.241 238.647 281.788 238.682 282.482H237.497C237.471 282.109 237.319 281.81 237.041 281.584C236.772 281.358 236.408 281.246 235.948 281.246C235.523 281.246 235.184 281.337 234.932 281.519C234.681 281.701 234.555 281.94 234.555 282.235C234.555 282.469 234.629 282.665 234.776 282.821C234.932 282.968 235.123 283.09 235.349 283.185C235.583 283.272 235.904 283.372 236.312 283.485C236.824 283.624 237.241 283.762 237.562 283.901C237.883 284.031 238.157 284.231 238.382 284.5C238.617 284.769 238.738 285.121 238.747 285.555C238.747 285.945 238.638 286.297 238.421 286.609C238.204 286.921 237.896 287.169 237.497 287.351C237.106 287.525 236.655 287.611 236.143 287.611Z" fill="white"/>
<path d="M57.6721 319.598C57.2295 319.598 56.852 319.446 56.5396 319.142C56.2358 318.83 56.0839 318.452 56.0839 318.009C56.0839 317.558 56.2358 317.181 56.5396 316.877C56.852 316.564 57.2295 316.408 57.6721 316.408C58.1234 316.408 58.5053 316.564 58.8177 316.877C59.1302 317.181 59.2864 317.558 59.2864 318.009C59.2864 318.452 59.1302 318.83 58.8177 319.142C58.5053 319.446 58.1234 319.598 57.6721 319.598ZM69.6365 313.271V322.344H68.4519V313.271H69.6365ZM75.1314 315.08C75.9993 315.08 76.7023 315.345 77.2404 315.874C77.7784 316.395 78.0475 317.15 78.0475 318.14V322.344H76.8758V318.309C76.8758 317.597 76.6979 317.055 76.3421 316.682C75.9863 316.3 75.5003 316.109 74.8841 316.109C74.2592 316.109 73.7602 316.304 73.387 316.695C73.0225 317.085 72.8402 317.654 72.8402 318.4V322.344H71.6556V315.21H72.8402V316.226C73.0745 315.861 73.3913 315.579 73.7905 315.38C74.1984 315.18 74.6454 315.08 75.1314 315.08ZM82.5081 322.462C81.9614 322.462 81.471 322.37 81.0371 322.188C80.6031 321.997 80.2603 321.737 80.0086 321.407C79.757 321.069 79.6181 320.682 79.5921 320.248H80.8158C80.8505 320.604 81.0154 320.895 81.3105 321.121C81.6142 321.346 82.0091 321.459 82.4951 321.459C82.9464 321.459 83.3022 321.359 83.5626 321.16C83.823 320.96 83.9531 320.708 83.9531 320.405C83.9531 320.092 83.8143 319.862 83.5366 319.715C83.2588 319.559 82.8292 319.407 82.2478 319.259C81.7184 319.12 81.2844 318.981 80.9459 318.843C80.6162 318.695 80.3298 318.482 80.0867 318.205C79.8524 317.918 79.7353 317.545 79.7353 317.085C79.7353 316.721 79.8437 316.386 80.0607 316.083C80.2777 315.779 80.5858 315.54 80.985 315.367C81.3842 315.184 81.8399 315.093 82.3519 315.093C83.1417 315.093 83.7796 315.293 84.2656 315.692C84.7516 316.091 85.0119 316.638 85.0467 317.332H83.862C83.836 316.959 83.6841 316.66 83.4064 316.434C83.1373 316.209 82.7728 316.096 82.3129 316.096C81.8876 316.096 81.5491 316.187 81.2974 316.369C81.0458 316.551 80.9199 316.79 80.9199 317.085C80.9199 317.319 80.9937 317.515 81.1412 317.671C81.2974 317.818 81.4884 317.94 81.714 318.035C81.9483 318.122 82.2695 318.222 82.6774 318.335C83.1894 318.474 83.606 318.613 83.9271 318.751C84.2482 318.882 84.5216 319.081 84.7472 319.35C84.9816 319.619 85.1031 319.971 85.1118 320.405C85.1118 320.795 85.0033 321.147 84.7863 321.459C84.5693 321.772 84.2612 322.019 83.862 322.201C83.4715 322.375 83.0202 322.462 82.5081 322.462ZM88.2291 316.187V320.392C88.2291 320.739 88.3029 320.986 88.4504 321.134C88.5979 321.273 88.854 321.342 89.2185 321.342H90.0907V322.344H89.0232C88.3636 322.344 87.8689 322.193 87.5391 321.889C87.2093 321.585 87.0444 321.086 87.0444 320.392V316.187H86.1201V315.21H87.0444V313.414H88.2291V315.21H90.0907V316.187H88.2291ZM91.0834 318.751C91.0834 318.022 91.231 317.385 91.526 316.838C91.8211 316.282 92.2247 315.853 92.7367 315.549C93.2575 315.245 93.8346 315.093 94.4681 315.093C95.093 315.093 95.6354 315.228 96.0954 315.497C96.5554 315.766 96.8982 316.104 97.1238 316.512V315.21H98.3215V322.344H97.1238V321.017C96.8895 321.433 96.538 321.78 96.0694 322.058C95.6094 322.327 95.0713 322.462 94.4551 322.462C93.8216 322.462 93.2488 322.305 92.7367 321.993C92.2247 321.68 91.8211 321.242 91.526 320.678C91.231 320.114 91.0834 319.472 91.0834 318.751ZM97.1238 318.764C97.1238 318.226 97.0154 317.758 96.7984 317.358C96.5814 316.959 96.2863 316.655 95.9132 316.447C95.5486 316.23 95.1451 316.122 94.7025 316.122C94.2598 316.122 93.8563 316.226 93.4918 316.434C93.1273 316.642 92.8365 316.946 92.6196 317.345C92.4026 317.745 92.2941 318.213 92.2941 318.751C92.2941 319.298 92.4026 319.776 92.6196 320.183C92.8365 320.583 93.1273 320.891 93.4918 321.108C93.8563 321.316 94.2598 321.42 94.7025 321.42C95.1451 321.42 95.5486 321.316 95.9132 321.108C96.2863 320.891 96.5814 320.583 96.7984 320.183C97.0154 319.776 97.1238 319.303 97.1238 318.764ZM103.799 315.08C104.667 315.08 105.37 315.345 105.908 315.874C106.446 316.395 106.715 317.15 106.715 318.14V322.344H105.544V318.309C105.544 317.597 105.366 317.055 105.01 316.682C104.654 316.3 104.168 316.109 103.552 316.109C102.927 316.109 102.428 316.304 102.055 316.695C101.69 317.085 101.508 317.654 101.508 318.4V322.344H100.323V315.21H101.508V316.226C101.742 315.861 102.059 315.579 102.458 315.38C102.866 315.18 103.313 315.08 103.799 315.08ZM110.096 316.187V320.392C110.096 320.739 110.169 320.986 110.317 321.134C110.464 321.273 110.72 321.342 111.085 321.342H111.957V322.344H110.89C110.23 322.344 109.735 322.193 109.406 321.889C109.076 321.585 108.911 321.086 108.911 320.392V316.187H107.987V315.21H108.911V313.414H110.096V315.21H111.957V316.187H110.096ZM126.366 315.21L124.14 322.344H122.917L121.198 316.682L119.48 322.344H118.256L116.017 315.21H117.228L118.868 321.199L120.638 315.21H121.849L123.58 321.212L125.195 315.21H126.366ZM128.154 314.052C127.928 314.052 127.737 313.974 127.581 313.818C127.425 313.661 127.347 313.47 127.347 313.245C127.347 313.019 127.425 312.828 127.581 312.672C127.737 312.516 127.928 312.438 128.154 312.438C128.371 312.438 128.553 312.516 128.701 312.672C128.857 312.828 128.935 313.019 128.935 313.245C128.935 313.47 128.857 313.661 128.701 313.818C128.553 313.974 128.371 314.052 128.154 314.052ZM128.727 315.21V322.344H127.542V315.21H128.727ZM132.191 316.187V320.392C132.191 320.739 132.265 320.986 132.412 321.134C132.56 321.273 132.816 321.342 133.18 321.342H134.052V322.344H132.985C132.325 322.344 131.831 322.193 131.501 321.889C131.171 321.585 131.006 321.086 131.006 320.392V316.187H130.082V315.21H131.006V313.414H132.191V315.21H134.052V316.187H132.191ZM139.029 315.08C139.567 315.08 140.053 315.197 140.487 315.432C140.921 315.657 141.259 316 141.502 316.46C141.754 316.92 141.88 317.48 141.88 318.14V322.344H140.708V318.309C140.708 317.597 140.53 317.055 140.174 316.682C139.818 316.3 139.332 316.109 138.716 316.109C138.091 316.109 137.592 316.304 137.219 316.695C136.855 317.085 136.672 317.654 136.672 318.4V322.344H135.488V312.711H136.672V316.226C136.907 315.861 137.228 315.579 137.636 315.38C138.052 315.18 138.517 315.08 139.029 315.08ZM143.372 318.751C143.372 318.022 143.52 317.385 143.815 316.838C144.11 316.282 144.513 315.853 145.025 315.549C145.546 315.245 146.128 315.093 146.77 315.093C147.325 315.093 147.842 315.223 148.319 315.484C148.796 315.736 149.161 316.07 149.413 316.486V312.711H150.61V322.344H149.413V321.004C149.178 321.429 148.831 321.78 148.371 322.058C147.911 322.327 147.373 322.462 146.757 322.462C146.123 322.462 145.546 322.305 145.025 321.993C144.513 321.68 144.11 321.242 143.815 320.678C143.52 320.114 143.372 319.472 143.372 318.751ZM149.413 318.764C149.413 318.226 149.304 317.758 149.087 317.358C148.87 316.959 148.575 316.655 148.202 316.447C147.837 316.23 147.434 316.122 146.991 316.122C146.549 316.122 146.145 316.226 145.78 316.434C145.416 316.642 145.125 316.946 144.908 317.345C144.691 317.745 144.583 318.213 144.583 318.751C144.583 319.298 144.691 319.776 144.908 320.183C145.125 320.583 145.416 320.891 145.78 321.108C146.145 321.316 146.549 321.42 146.991 321.42C147.434 321.42 147.837 321.316 148.202 321.108C148.575 320.891 148.87 320.583 149.087 320.183C149.304 319.776 149.413 319.303 149.413 318.764ZM153.797 316.369C154.005 315.961 154.3 315.644 154.682 315.419C155.073 315.193 155.546 315.08 156.101 315.08V316.304H155.789C154.461 316.304 153.797 317.024 153.797 318.465V322.344H152.612V315.21H153.797V316.369ZM157.026 318.751C157.026 318.022 157.173 317.385 157.469 316.838C157.764 316.282 158.167 315.853 158.679 315.549C159.2 315.245 159.777 315.093 160.411 315.093C161.036 315.093 161.578 315.228 162.038 315.497C162.498 315.766 162.841 316.104 163.066 316.512V315.21H164.264V322.344H163.066V321.017C162.832 321.433 162.481 321.78 162.012 322.058C161.552 322.327 161.014 322.462 160.398 322.462C159.764 322.462 159.191 322.305 158.679 321.993C158.167 321.68 157.764 321.242 157.469 320.678C157.173 320.114 157.026 319.472 157.026 318.751ZM163.066 318.764C163.066 318.226 162.958 317.758 162.741 317.358C162.524 316.959 162.229 316.655 161.856 316.447C161.491 316.23 161.088 316.122 160.645 316.122C160.202 316.122 159.799 316.226 159.434 316.434C159.07 316.642 158.779 316.946 158.562 317.345C158.345 317.745 158.237 318.213 158.237 318.751C158.237 319.298 158.345 319.776 158.562 320.183C158.779 320.583 159.07 320.891 159.434 321.108C159.799 321.316 160.202 321.42 160.645 321.42C161.088 321.42 161.491 321.316 161.856 321.108C162.229 320.891 162.524 320.583 162.741 320.183C162.958 319.776 163.066 319.303 163.066 318.764ZM175.769 315.21L173.543 322.344H172.319L170.601 316.682L168.883 322.344H167.659L165.42 315.21H166.63L168.271 321.199L170.041 315.21H171.252L172.983 321.212L174.598 315.21H175.769ZM176.502 318.751C176.502 318.022 176.65 317.385 176.945 316.838C177.24 316.282 177.644 315.853 178.156 315.549C178.676 315.245 179.253 315.093 179.887 315.093C180.512 315.093 181.054 315.228 181.514 315.497C181.974 315.766 182.317 316.104 182.543 316.512V315.21H183.74V322.344H182.543V321.017C182.308 321.433 181.957 321.78 181.488 322.058C181.028 322.327 180.49 322.462 179.874 322.462C179.24 322.462 178.668 322.305 178.156 321.993C177.644 321.68 177.24 321.242 176.945 320.678C176.65 320.114 176.502 319.472 176.502 318.751ZM182.543 318.764C182.543 318.226 182.434 317.758 182.217 317.358C182 316.959 181.705 316.655 181.332 316.447C180.968 316.23 180.564 316.122 180.121 316.122C179.679 316.122 179.275 316.226 178.911 316.434C178.546 316.642 178.255 316.946 178.038 317.345C177.821 317.745 177.713 318.213 177.713 318.751C177.713 319.298 177.821 319.776 178.038 320.183C178.255 320.583 178.546 320.891 178.911 321.108C179.275 321.316 179.679 321.42 180.121 321.42C180.564 321.42 180.968 321.316 181.332 321.108C181.705 320.891 182 320.583 182.217 320.183C182.434 319.776 182.543 319.303 182.543 318.764ZM186.927 312.711V322.344H185.742V312.711H186.927ZM191.472 322.462C190.925 322.462 190.434 322.37 190 322.188C189.567 321.997 189.224 321.737 188.972 321.407C188.72 321.069 188.581 320.682 188.555 320.248H189.779C189.814 320.604 189.979 320.895 190.274 321.121C190.578 321.346 190.972 321.459 191.459 321.459C191.91 321.459 192.266 321.359 192.526 321.16C192.786 320.96 192.917 320.708 192.917 320.405C192.917 320.092 192.778 319.862 192.5 319.715C192.222 319.559 191.793 319.407 191.211 319.259C190.682 319.12 190.248 318.981 189.909 318.843C189.58 318.695 189.293 318.482 189.05 318.205C188.816 317.918 188.699 317.545 188.699 317.085C188.699 316.721 188.807 316.386 189.024 316.083C189.241 315.779 189.549 315.54 189.948 315.367C190.348 315.184 190.803 315.093 191.315 315.093C192.105 315.093 192.743 315.293 193.229 315.692C193.715 316.091 193.975 316.638 194.01 317.332H192.825C192.799 316.959 192.647 316.66 192.37 316.434C192.101 316.209 191.736 316.096 191.276 316.096C190.851 316.096 190.513 316.187 190.261 316.369C190.009 316.551 189.883 316.79 189.883 317.085C189.883 317.319 189.957 317.515 190.105 317.671C190.261 317.818 190.452 317.94 190.677 318.035C190.912 318.122 191.233 318.222 191.641 318.335C192.153 318.474 192.569 318.613 192.89 318.751C193.212 318.882 193.485 319.081 193.711 319.35C193.945 319.619 194.066 319.971 194.075 320.405C194.075 320.795 193.967 321.147 193.75 321.459C193.533 321.772 193.225 322.019 192.825 322.201C192.435 322.375 191.984 322.462 191.472 322.462Z" fill="white"/>
<g style="mix-blend-mode:soft-light">
<path d="M49.6466 112.887C49.6466 115.032 58.3339 116.771 69.0499 116.771C79.7659 116.771 88.4532 115.032 88.4532 112.887C88.4532 110.742 79.7659 109.003 69.0499 109.003C58.3339 109.003 49.6466 110.742 49.6466 112.887Z" fill="url(#paint1_radial_130_2604)"/>
</g>
<path d="M78.457 64.0166C78.457 69.2984 74.1756 73.5798 68.8938 73.5798C63.612 73.5798 59.3312 69.2984 59.3312 64.0166C59.3312 58.7348 63.6126 54.4534 68.8938 54.4534C74.1756 54.4534 78.457 58.7348 78.457 64.0166Z" fill="url(#paint2_radial_130_2604)"/>
<path d="M89.0473 93.9462C86.3853 82.1713 78.3693 73.6178 68.8938 73.6178C59.3903 73.6178 51.3544 82.223 48.7166 94.0526C48.5212 94.9297 48.2755 96.9946 49.5795 98.2488C51.7811 100.662 56.9105 105.054 68.5448 104.932C79.5718 104.815 85.1261 100.963 87.7135 98.5741C89.5282 97.081 89.2533 94.857 89.0473 93.9462Z" fill="url(#paint3_radial_130_2604)"/>
<g style="mix-blend-mode:color-dodge" opacity="0.44">
<path d="M68.9971 82.8998C68.2344 84.5876 66.243 89.4638 66.4364 93.9748C66.447 94.2218 66.2467 94.7699 65.8386 94.8178C64.8146 94.9366 62.7448 94.9857 60.8243 93.8759C60.6638 93.7832 60.2905 93.3664 60.2059 93.0043C59.7648 91.1323 58.5324 85.0934 60.112 81.8758C60.2314 81.6319 60.7627 81.1877 61.1702 81.1846C62.6863 81.1728 66.4943 81.2269 68.6587 82.0108C68.8882 82.0929 69.1756 82.5054 68.9971 82.8998Z" fill="url(#paint4_linear_130_2604)"/>
</g>
<g style="mix-blend-mode:color-dodge" opacity="0.44">
<path d="M70.0379 60.2104C69.5893 61.2021 68.4191 64.0682 68.533 66.719C68.5392 66.864 68.4216 67.1862 68.1815 67.2142C67.5799 67.2839 66.3636 67.3131 65.2345 66.6605C65.1399 66.6058 64.9209 66.3607 64.8712 66.1479C64.6117 65.0474 63.8876 61.4988 64.8158 59.6076C64.8861 59.4645 65.1984 59.2032 65.4379 59.2013C66.3288 59.1945 68.5666 59.2262 69.8388 59.6866C69.9738 59.7364 70.1424 59.9784 70.0379 60.2104Z" fill="url(#paint5_linear_130_2604)"/>
</g>
<g style="mix-blend-mode:soft-light">
<path d="M204.822 112.887C204.822 115.032 213.509 116.771 224.225 116.771C234.941 116.771 243.628 115.032 243.628 112.887C243.628 110.742 234.941 109.003 224.225 109.003C213.509 109.003 204.822 110.742 204.822 112.887Z" fill="url(#paint6_radial_130_2604)"/>
</g>
<path d="M233.632 64.0166C233.632 69.2984 229.351 73.5798 224.069 73.5798C218.787 73.5798 214.506 69.2984 214.506 64.0166C214.506 58.7348 218.788 54.4534 224.069 54.4534C229.351 54.4534 233.632 58.7348 233.632 64.0166Z" fill="url(#paint7_radial_130_2604)"/>
<path d="M244.223 93.9462C241.56 82.172 233.544 73.6185 224.07 73.6185C214.565 73.6185 206.53 82.2236 203.892 94.0532C203.697 94.9304 203.451 96.9952 204.755 98.2494C206.957 100.663 212.086 105.055 223.721 104.932C234.748 104.816 240.302 100.964 242.889 98.5748C244.703 97.0811 244.428 94.857 244.223 93.9462Z" fill="url(#paint8_radial_130_2604)"/>
<g style="mix-blend-mode:color-dodge" opacity="0.44">
<path d="M224.172 82.8999C223.41 84.5877 221.418 89.4638 221.612 93.9748C221.622 94.2218 221.422 94.7699 221.014 94.8178C219.99 94.9366 217.92 94.9858 215.999 93.8759C215.839 93.7832 215.466 93.3664 215.381 93.0043C214.94 91.1324 213.708 85.0934 215.287 81.8758C215.407 81.632 215.939 81.1878 216.345 81.1847C217.861 81.1728 221.669 81.227 223.834 82.0108C224.063 82.093 224.351 82.5054 224.172 82.8999Z" fill="url(#paint9_linear_130_2604)"/>
</g>
<g style="mix-blend-mode:color-dodge" opacity="0.44">
<path d="M225.213 60.2104C224.765 61.2021 223.594 64.0682 223.708 66.7191C223.714 66.864 223.597 67.1863 223.357 67.2143C222.755 67.2839 221.539 67.3132 220.41 66.6606C220.315 66.6058 220.096 66.3607 220.046 66.1479C219.787 65.0474 219.063 61.4988 219.991 59.6076C220.061 59.4645 220.374 59.2032 220.613 59.2014C221.504 59.1945 223.742 59.2262 225.014 59.6866C225.148 59.7364 225.318 59.9784 225.213 60.2104Z" fill="url(#paint10_linear_130_2604)"/>
</g>
<g style="mix-blend-mode:soft-light">
<path d="M192.119 143.834C209.756 143.834 224.053 140.972 224.053 137.442C224.053 133.911 209.756 131.049 192.119 131.049C174.483 131.049 160.185 133.911 160.185 137.442C160.185 140.972 174.483 143.834 192.119 143.834Z" fill="url(#paint11_radial_130_2604)"/>
</g>
<path d="M205.687 67.9988C205.687 75.4798 199.623 81.5442 192.142 81.5442C184.661 81.5442 178.597 75.4798 178.597 67.9988C178.596 60.5178 184.661 54.4534 192.142 54.4534C199.623 54.4534 205.687 60.5178 205.687 67.9988Z" fill="url(#paint12_radial_130_2604)"/>
<path d="M220.686 110.391C216.916 93.7135 205.562 81.5984 192.141 81.5984C178.68 81.5984 167.298 93.7869 163.562 110.542C163.285 111.785 162.938 114.709 164.785 116.486C167.903 119.904 175.168 126.125 191.647 125.952C207.265 125.788 215.133 120.331 218.798 116.947C221.368 114.832 220.978 111.682 220.686 110.391Z" fill="url(#paint13_radial_130_2604)"/>
<g style="mix-blend-mode:color-dodge" opacity="0.44">
<path d="M192.288 94.7462C191.207 97.1364 188.387 104.044 188.662 110.433C188.677 110.783 188.393 111.559 187.814 111.626C186.364 111.794 183.433 111.864 180.712 110.292C180.484 110.16 179.956 109.569 179.836 109.057C179.211 106.405 177.465 97.8512 179.703 93.2942C179.873 92.9489 180.625 92.3193 181.202 92.3149C183.349 92.2981 188.742 92.3747 191.809 93.4852C192.133 93.6027 192.54 94.1863 192.288 94.7462Z" fill="url(#paint14_linear_130_2604)"/>
</g>
<g style="mix-blend-mode:color-dodge" opacity="0.44">
<path d="M193.761 62.6081C193.126 64.0129 191.469 68.0722 191.63 71.8267C191.638 72.032 191.472 72.4886 191.132 72.5285C190.28 72.6274 188.557 72.6684 186.958 71.7446C186.824 71.6674 186.513 71.3203 186.442 71.0186C186.075 69.4602 185.05 64.4334 186.365 61.7552C186.464 61.5524 186.907 61.1822 187.246 61.1797C188.507 61.1698 191.678 61.2146 193.479 61.8672C193.67 61.9362 193.91 62.279 193.761 62.6081Z" fill="url(#paint15_linear_130_2604)"/>
</g>
<g style="mix-blend-mode:soft-light">
<path d="M101.434 143.834C119.071 143.834 133.368 140.972 133.368 137.442C133.368 133.911 119.071 131.049 101.434 131.049C83.7977 131.049 69.5003 133.911 69.5003 137.442C69.5003 140.972 83.7977 143.834 101.434 143.834Z" fill="url(#paint16_radial_130_2604)"/>
</g>
<path d="M115.002 67.9988C115.002 75.4798 108.938 81.5442 101.457 81.5442C93.9757 81.5442 87.9119 75.4798 87.9119 67.9988C87.9119 60.5178 93.9763 54.4534 101.457 54.4534C108.938 54.4534 115.002 60.5178 115.002 67.9988Z" fill="url(#paint17_radial_130_2604)"/>
<path d="M130.002 110.391C126.231 93.7135 114.878 81.5984 101.457 81.5984C87.9954 81.5984 76.6137 93.7869 72.8778 110.542C72.601 111.785 72.2532 114.709 74.1003 116.486C77.219 119.904 84.4841 126.125 100.963 125.952C116.581 125.788 124.449 120.331 128.114 116.947C130.683 114.832 130.294 111.682 130.002 110.391Z" fill="url(#paint18_radial_130_2604)"/>
<g style="mix-blend-mode:color-dodge" opacity="0.44">
<path d="M101.603 94.7462C100.522 97.1364 97.7016 104.044 97.9765 110.433C97.9921 110.783 97.7078 111.559 97.1292 111.626C95.679 111.794 92.7476 111.864 90.0265 110.292C89.7994 110.16 89.2706 109.569 89.1505 109.057C88.5259 106.405 86.7802 97.8512 89.018 93.2942C89.1878 92.9489 89.94 92.3193 90.5167 92.3149C92.6636 92.2981 98.0574 92.3747 101.124 93.4852C101.449 93.6027 101.855 94.1863 101.603 94.7462Z" fill="url(#paint19_linear_130_2604)"/>
</g>
<g style="mix-blend-mode:color-dodge" opacity="0.44">
<path d="M103.077 62.6081C102.442 64.0129 100.784 68.0722 100.945 71.8267C100.954 72.032 100.787 72.4886 100.448 72.5285C99.5953 72.6274 97.8727 72.6684 96.2732 71.7446C96.1394 71.6674 95.829 71.3203 95.7581 71.0186C95.391 69.4602 94.3652 64.4334 95.6803 61.7552C95.7799 61.5524 96.2222 61.1822 96.5612 61.1797C97.8229 61.1698 100.993 61.2146 102.795 61.8672C102.986 61.9362 103.225 62.279 103.077 62.6081Z" fill="url(#paint20_linear_130_2604)"/>
</g>
<path d="M165.452 72.1664C165.452 81.9492 157.522 89.8794 147.739 89.8794C137.956 89.8794 130.026 81.9492 130.026 72.1664C130.026 62.3836 137.957 54.4534 147.739 54.4534C157.522 54.4534 165.452 62.3836 165.452 72.1664Z" fill="url(#paint21_radial_130_2604)"/>
<path d="M185.066 127.602C180.136 105.793 165.289 89.9503 147.739 89.9503C130.135 89.9503 115.252 105.889 110.367 127.8C110.005 129.424 109.55 133.249 111.965 135.572C116.044 140.042 125.543 148.176 147.092 147.95C167.516 147.735 177.804 140.6 182.597 136.174C185.957 133.409 185.448 129.29 185.066 127.602Z" fill="url(#paint22_radial_130_2604)"/>
<g style="mix-blend-mode:color-dodge" opacity="0.44">
<path d="M147.93 107.143C146.517 110.269 142.828 119.301 143.187 127.656C143.207 128.114 142.836 129.129 142.079 129.217C140.183 129.437 136.349 129.529 132.791 127.472C132.494 127.301 131.803 126.528 131.646 125.857C130.829 122.389 128.546 111.204 131.472 105.245C131.694 104.793 132.678 103.97 133.432 103.964C136.239 103.942 143.293 104.042 147.302 105.495C147.728 105.648 148.261 106.412 147.93 107.143Z" fill="url(#paint23_linear_130_2604)"/>
</g>
<g style="mix-blend-mode:color-dodge" opacity="0.44">
<path d="M149.857 65.1172C149.027 66.9543 146.859 72.2622 147.07 77.1726C147.082 77.4414 146.863 78.038 146.419 78.0896C145.305 78.2184 143.052 78.2725 140.961 77.0644C140.786 76.9636 140.38 76.5094 140.288 76.1156C139.808 74.0776 138.466 67.5043 140.186 64.0017C140.316 63.7361 140.894 63.2527 141.337 63.249C142.987 63.2359 147.132 63.295 149.489 64.1485C149.738 64.2388 150.051 64.6873 149.857 65.1172Z" fill="url(#paint24_linear_130_2604)"/>
</g>
<g style="mix-blend-mode:soft-light">
<path d="M195.851 165.115C195.851 170.438 174.298 174.752 147.709 174.752C121.122 174.752 99.568 170.438 99.568 165.115C99.568 159.793 121.122 155.479 147.709 155.479C174.298 155.479 195.851 159.793 195.851 165.115Z" fill="url(#paint25_radial_130_2604)"/>
</g>
<defs>
<filter id="filter0_b_130_2604" x="-0.693986" y="-1.33476" width="294.747" height="386.022" filterUnits="userSpaceOnUse" color-interpolation-filters="sRGB">
<feFlood flood-opacity="0" result="BackgroundImageFix"/>
<feGaussianBlur in="BackgroundImageFix" stdDeviation="0.667336"/>
<feComposite in2="SourceAlpha" operator="in" result="effect1_backgroundBlur_130_2604"/>
<feBlend mode="normal" in="SourceGraphic" in2="effect1_backgroundBlur_130_2604" result="shape"/>
</filter>
<linearGradient id="paint0_linear_130_2604" x1="-46.202" y1="415.989" x2="310.048" y2="406.27" gradientUnits="userSpaceOnUse">
<stop offset="0.31" stop-color="#81FF00"/>
<stop offset="1" stop-color="#4D9800"/>
</linearGradient>
<radialGradient id="paint1_radial_130_2604" cx="0" cy="0" r="1" gradientUnits="userSpaceOnUse" gradientTransform="translate(69.0504 112.887) rotate(180) scale(18.1147 3.26608)">
<stop stop-color="#808285"/>
<stop offset="0.1489" stop-color="#9D9FA2"/>
<stop offset="0.3348" stop-color="#BEC0C2"/>
<stop offset="0.517" stop-color="#D9DADC"/>
<stop offset="0.692" stop-color="#ECEDEE"/>
<stop offset="0.8565" stop-color="#F8F9F9"/>
<stop offset="1" stop-color="white"/>
</radialGradient>
<radialGradient id="paint2_radial_130_2604" cx="0" cy="0" r="1" gradientUnits="userSpaceOnUse" gradientTransform="translate(66.2846 61.57) scale(9.56302 9.56302)">
<stop stop-color="#FFF200"/>
<stop offset="1" stop-color="#F7941D"/>
</radialGradient>
<radialGradient id="paint3_radial_130_2604" cx="0" cy="0" r="1" gradientUnits="userSpaceOnUse" gradientTransform="translate(64.5504 89.2761) scale(17.7456 17.7456)">
<stop stop-color="#F7941D"/>
<stop offset="1" stop-color="#BE1E2D"/>
</radialGradient>
<linearGradient id="paint4_linear_130_2604" x1="62.681" y1="94.1751" x2="64.3931" y2="82.5018" gradientUnits="userSpaceOnUse">
<stop stop-color="#58595B"/>
<stop offset="0.00649029" stop-color="#5A5B5D"/>
<stop offset="0.1875" stop-color="#8C8D8E"/>
<stop offset="0.3665" stop-color="#B5B6B7"/>
<stop offset="0.5401" stop-color="#D5D6D6"/>
<stop offset="0.7067" stop-color="#ECECED"/>
<stop offset="0.8634" stop-color="#FAFAFA"/>
<stop offset="1" stop-color="white"/>
</linearGradient>
<linearGradient id="paint5_linear_130_2604" x1="66.3256" y1="66.8367" x2="67.3318" y2="59.9764" gradientUnits="userSpaceOnUse">
<stop stop-color="#58595B"/>
<stop offset="0.00649029" stop-color="#5A5B5D"/>
<stop offset="0.1875" stop-color="#8C8D8E"/>
<stop offset="0.3665" stop-color="#B5B6B7"/>
<stop offset="0.5401" stop-color="#D5D6D6"/>
<stop offset="0.7067" stop-color="#ECECED"/>
<stop offset="0.8634" stop-color="#FAFAFA"/>
<stop offset="1" stop-color="white"/>
</linearGradient>
<radialGradient id="paint6_radial_130_2604" cx="0" cy="0" r="1" gradientUnits="userSpaceOnUse" gradientTransform="translate(224.226 112.887) rotate(180) scale(18.1147 3.26608)">
<stop stop-color="#808285"/>
<stop offset="0.1489" stop-color="#9D9FA2"/>
<stop offset="0.3348" stop-color="#BEC0C2"/>
<stop offset="0.517" stop-color="#D9DADC"/>
<stop offset="0.692" stop-color="#ECEDEE"/>
<stop offset="0.8565" stop-color="#F8F9F9"/>
<stop offset="1" stop-color="white"/>
</radialGradient>
<radialGradient id="paint7_radial_130_2604" cx="0" cy="0" r="1" gradientUnits="userSpaceOnUse" gradientTransform="translate(221.46 61.57) scale(9.56303 9.56302)">
<stop stop-color="#FFF200"/>
<stop offset="1" stop-color="#F7941D"/>
</radialGradient>
<radialGradient id="paint8_radial_130_2604" cx="0" cy="0" r="1" gradientUnits="userSpaceOnUse" gradientTransform="translate(219.726 89.2762) scale(17.7457)">
<stop stop-color="#F7941D"/>
<stop offset="1" stop-color="#BE1E2D"/>
</radialGradient>
<linearGradient id="paint9_linear_130_2604" x1="217.856" y1="94.1751" x2="219.568" y2="82.5018" gradientUnits="userSpaceOnUse">
<stop stop-color="#58595B"/>
<stop offset="0.00649029" stop-color="#5A5B5D"/>
<stop offset="0.1875" stop-color="#8C8D8E"/>
<stop offset="0.3665" stop-color="#B5B6B7"/>
<stop offset="0.5401" stop-color="#D5D6D6"/>
<stop offset="0.7067" stop-color="#ECECED"/>
<stop offset="0.8634" stop-color="#FAFAFA"/>
<stop offset="1" stop-color="white"/>
</linearGradient>
<linearGradient id="paint10_linear_130_2604" x1="221.501" y1="66.8367" x2="222.507" y2="59.9765" gradientUnits="userSpaceOnUse">
<stop stop-color="#58595B"/>
<stop offset="0.00649029" stop-color="#5A5B5D"/>
<stop offset="0.1875" stop-color="#8C8D8E"/>
<stop offset="0.3665" stop-color="#B5B6B7"/>
<stop offset="0.5401" stop-color="#D5D6D6"/>
<stop offset="0.7067" stop-color="#ECECED"/>
<stop offset="0.8634" stop-color="#FAFAFA"/>
<stop offset="1" stop-color="white"/>
</linearGradient>
<radialGradient id="paint11_radial_130_2604" cx="0" cy="0" r="1" gradientUnits="userSpaceOnUse" gradientTransform="translate(192.119 137.442) rotate(180) scale(29.8129 5.37527)">
<stop stop-color="#808285"/>
<stop offset="0.1489" stop-color="#9D9FA2"/>
<stop offset="0.3348" stop-color="#BEC0C2"/>
<stop offset="0.517" stop-color="#D9DADC"/>
<stop offset="0.692" stop-color="#ECEDEE"/>
<stop offset="0.8565" stop-color="#F8F9F9"/>
<stop offset="1" stop-color="white"/>
</radialGradient>
<radialGradient id="paint12_radial_130_2604" cx="0" cy="0" r="1" gradientUnits="userSpaceOnUse" gradientTransform="translate(188.445 64.5335) scale(13.5453)">
<stop stop-color="#FFF200"/>
<stop offset="1" stop-color="#F7941D"/>
</radialGradient>
<radialGradient id="paint13_radial_130_2604" cx="0" cy="0" r="1" gradientUnits="userSpaceOnUse" gradientTransform="translate(185.989 103.777) scale(25.1353 25.1353)">
<stop stop-color="#F7941D"/>
<stop offset="1" stop-color="#BE1E2D"/>
</radialGradient>
<linearGradient id="paint14_linear_130_2604" x1="183.341" y1="110.716" x2="185.766" y2="94.1817" gradientUnits="userSpaceOnUse">
<stop stop-color="#58595B"/>
<stop offset="0.00649029" stop-color="#5A5B5D"/>
<stop offset="0.1875" stop-color="#8C8D8E"/>
<stop offset="0.3665" stop-color="#B5B6B7"/>
<stop offset="0.5401" stop-color="#D5D6D6"/>
<stop offset="0.7067" stop-color="#ECECED"/>
<stop offset="0.8634" stop-color="#FAFAFA"/>
<stop offset="1" stop-color="white"/>
</linearGradient>
<linearGradient id="paint15_linear_130_2604" x1="188.503" y1="71.9935" x2="189.929" y2="62.2764" gradientUnits="userSpaceOnUse">
<stop stop-color="#58595B"/>
<stop offset="0.00649029" stop-color="#5A5B5D"/>
<stop offset="0.1875" stop-color="#8C8D8E"/>
<stop offset="0.3665" stop-color="#B5B6B7"/>
<stop offset="0.5401" stop-color="#D5D6D6"/>
<stop offset="0.7067" stop-color="#ECECED"/>
<stop offset="0.8634" stop-color="#FAFAFA"/>
<stop offset="1" stop-color="white"/>
</linearGradient>
<radialGradient id="paint16_radial_130_2604" cx="0" cy="0" r="1" gradientUnits="userSpaceOnUse" gradientTransform="translate(101.435 137.442) rotate(180) scale(29.8129 5.37527)">
<stop stop-color="#808285"/>
<stop offset="0.1489" stop-color="#9D9FA2"/>
<stop offset="0.3348" stop-color="#BEC0C2"/>
<stop offset="0.517" stop-color="#D9DADC"/>
<stop offset="0.692" stop-color="#ECEDEE"/>
<stop offset="0.8565" stop-color="#F8F9F9"/>
<stop offset="1" stop-color="white"/>
</radialGradient>
<radialGradient id="paint17_radial_130_2604" cx="0" cy="0" r="1" gradientUnits="userSpaceOnUse" gradientTransform="translate(97.7608 64.5335) scale(13.5453 13.5453)">
<stop stop-color="#FFF200"/>
<stop offset="1" stop-color="#F7941D"/>
</radialGradient>
<radialGradient id="paint18_radial_130_2604" cx="0" cy="0" r="1" gradientUnits="userSpaceOnUse" gradientTransform="translate(95.3044 103.777) scale(25.1353)">
<stop stop-color="#F7941D"/>
<stop offset="1" stop-color="#BE1E2D"/>
</radialGradient>
<linearGradient id="paint19_linear_130_2604" x1="92.6564" y1="110.716" x2="95.0814" y2="94.1817" gradientUnits="userSpaceOnUse">
<stop stop-color="#58595B"/>
<stop offset="0.00649029" stop-color="#5A5B5D"/>
<stop offset="0.1875" stop-color="#8C8D8E"/>
<stop offset="0.3665" stop-color="#B5B6B7"/>
<stop offset="0.5401" stop-color="#D5D6D6"/>
<stop offset="0.7067" stop-color="#ECECED"/>
<stop offset="0.8634" stop-color="#FAFAFA"/>
<stop offset="1" stop-color="white"/>
</linearGradient>
<linearGradient id="paint20_linear_130_2604" x1="97.8188" y1="71.9935" x2="99.244" y2="62.2764" gradientUnits="userSpaceOnUse">
<stop stop-color="#58595B"/>
<stop offset="0.00649029" stop-color="#5A5B5D"/>
<stop offset="0.1875" stop-color="#8C8D8E"/>
<stop offset="0.3665" stop-color="#B5B6B7"/>
<stop offset="0.5401" stop-color="#D5D6D6"/>
<stop offset="0.7067" stop-color="#ECECED"/>
<stop offset="0.8634" stop-color="#FAFAFA"/>
<stop offset="1" stop-color="white"/>
</linearGradient>
<radialGradient id="paint21_radial_130_2604" cx="0" cy="0" r="1" gradientUnits="userSpaceOnUse" gradientTransform="translate(142.906 67.6349) scale(17.7128 17.7128)">
<stop stop-color="#FFF200"/>
<stop offset="1" stop-color="#F7941D"/>
</radialGradient>
<radialGradient id="paint22_radial_130_2604" cx="0" cy="0" r="1" gradientUnits="userSpaceOnUse" gradientTransform="translate(139.693 118.953) scale(32.8689)">
<stop stop-color="#F7941D"/>
<stop offset="1" stop-color="#BE1E2D"/>
</radialGradient>
<linearGradient id="paint23_linear_130_2604" x1="136.231" y1="128.027" x2="139.402" y2="106.405" gradientUnits="userSpaceOnUse">
<stop stop-color="#58595B"/>
<stop offset="0.00649029" stop-color="#5A5B5D"/>
<stop offset="0.1875" stop-color="#8C8D8E"/>
<stop offset="0.3665" stop-color="#B5B6B7"/>
<stop offset="0.5401" stop-color="#D5D6D6"/>
<stop offset="0.7067" stop-color="#ECECED"/>
<stop offset="0.8634" stop-color="#FAFAFA"/>
<stop offset="1" stop-color="white"/>
</linearGradient>
<linearGradient id="paint24_linear_130_2604" x1="142.981" y1="77.3902" x2="144.845" y2="64.6834" gradientUnits="userSpaceOnUse">
<stop stop-color="#58595B"/>
<stop offset="0.00649029" stop-color="#5A5B5D"/>
<stop offset="0.1875" stop-color="#8C8D8E"/>
<stop offset="0.3665" stop-color="#B5B6B7"/>
<stop offset="0.5401" stop-color="#D5D6D6"/>
<stop offset="0.7067" stop-color="#ECECED"/>
<stop offset="0.8634" stop-color="#FAFAFA"/>
<stop offset="1" stop-color="white"/>
</linearGradient>
<radialGradient id="paint25_radial_130_2604" cx="0" cy="0" r="1" gradientUnits="userSpaceOnUse" gradientTransform="translate(147.71 165.115) scale(44.9437 8.10334)">
<stop stop-color="#808285"/>
<stop offset="0.1489" stop-color="#9D9FA2"/>
<stop offset="0.3348" stop-color="#BEC0C2"/>
<stop offset="0.517" stop-color="#D9DADC"/>
<stop offset="0.692" stop-color="#ECEDEE"/>
<stop offset="0.8565" stop-color="#F8F9F9"/>
<stop offset="1" stop-color="white"/>
</radialGradient>
</defs>
</svg>
